<?xml version="1.0" encoding="UTF-8" standalone="no"?>
<svg
   version="1.1"
   width="320pt"
   height="184pt"
   viewBox="0 0 320.00001 184"
   id="svg14"
   sodipodi:docname="dedalos-holidays.svg"
   inkscape:version="1.3.2 (091e20ef0f, 2023-11-25)"
   inkscape:export-filename="dedalos-holidays.png"
   inkscape:export-xdpi="72"
   inkscape:export-ydpi="72"
   xmlns:inkscape="http://www.inkscape.org/namespaces/inkscape"
   xmlns:sodipodi="http://sodipodi.sourceforge.net/DTD/sodipodi-0.dtd"
   xmlns="http://www.w3.org/2000/svg"
   xmlns:svg="http://www.w3.org/2000/svg">
  <defs
     id="defs14" />
  <sodipodi:namedview
     id="namedview14"
     pagecolor="#ffffff"
     bordercolor="#000000"
     borderopacity="0.25"
     inkscape:showpageshadow="2"
     inkscape:pageopacity="0.0"
     inkscape:pagecheckerboard="0"
     inkscape:deskcolor="#d1d1d1"
     inkscape:document-units="pt"
     inkscape:zoom="1.6919219"
     inkscape:cx="270.9936"
     inkscape:cy="136.82665"
     inkscape:window-width="1920"
     inkscape:window-height="1043"
     inkscape:window-x="0"
     inkscape:window-y="0"
     inkscape:window-maximized="1"
     inkscape:current-layer="svg14" />
  <g
     enable-background="new"
     id="g14"
     transform="matrix(0.18722696,0,0,0.18722696,-61.185881,-192.33466)">
    <g
       id="g13">
      <g
         id="Layer-1"
         data-name="Layer 1">
        <clipPath
           id="cp0">
          <path
             transform="matrix(2.7777777,0,0,-2.7777777,0,2968.2222)"
             d="M 0,1068.558 H 850.39 V 0 H 0 Z"
             id="path1" />
        </clipPath>
        <g
           clip-path="url(#cp0)"
           id="g12">
          <path
             transform="matrix(2.7777777,0,0,-2.7777777,1492.6296,1400.6964)"
             d="m 0,0 c -1.929,-0.183 -3.705,-0.318 -5.261,-0.411 -8.521,-0.508 -17,-1.686 -25.252,-3.872 -9.706,-2.571 -17.923,-5.697 -24.816,-8.912 -3.959,-1.847 -7.446,-3.715 -10.53,-5.535 -12.2,-7.2 -17.755,-13.51 -17.755,-13.51 5.956,4.321 11.909,7.93 17.755,10.989 3.565,1.865 7.076,3.497 10.53,4.957 22.673,9.58 42.429,10.994 51.846,10.996 0.675,0 1.35,0.033 2.026,0.04 3.946,0.046 7.89,0.196 11.816,0.541 0.287,0.026 0.575,0.06 0.862,0.087 L 12.17,1.613 C 7.641,0.841 3.537,0.334 0,0"
             fill="#f1ae40"
             id="path2" />
          <path
             transform="matrix(2.7777777,0,0,-2.7777777,1764.1005,1246.4187)"
             d="m 0,0 c -7.118,-12.184 -16.095,-21.708 -25.835,-29.185 -2.79,-2.141 -5.641,-4.113 -8.532,-5.928 -16.373,-10.283 -33.951,-15.568 -48.131,-18.264 l -0.869,-6.461 c 3.262,0.387 6.51,0.892 9.734,1.547 18.401,3.743 33.693,10.583 45.986,18.112 2.969,1.82 5.774,3.675 8.392,5.541 19.979,14.241 29.763,28.87 29.763,28.87 C 5.897,3.4 0,0 0,0"
             fill="#f1ae40"
             id="path3" />
          <path
             transform="matrix(2.7777777,0,0,-2.7777777,915.75247,1359.9035)"
             d="m 0,0 c -2.085,9.353 -4.906,17.994 -8.463,25.924 -2.745,5.997 -6.381,10.878 -10.903,14.639 -4.526,3.761 -9.176,6.405 -13.953,7.929 -4.78,1.527 -9.226,1.957 -13.343,1.297 -4.118,-0.662 -7.144,-2.466 -9.074,-5.413 -3.255,-5.287 -5.871,-10.98 -7.853,-17.08 -1.983,-6.1 -4.094,-13.166 -6.328,-21.196 0.202,3.863 0.252,7.573 0.151,11.132 -0.102,3.557 -0.457,7.015 -1.067,10.37 -1.119,3.048 -2.771,6.149 -4.956,9.301 -2.187,3.151 -4.803,6.024 -7.853,8.617 -3.05,2.591 -6.381,4.726 -9.988,6.404 -3.61,1.678 -7.346,2.516 -11.208,2.516 -7.727,0 -16.038,-1.323 -24.933,-3.964 -8.897,-2.646 -17.665,-6.305 -26.305,-10.98 -8.642,-4.678 -16.8,-10.217 -24.475,-16.622 -7.675,-6.404 -14.105,-13.319 -19.29,-20.738 -5.185,-7.423 -8.792,-15.2 -10.827,-23.332 -2.032,-8.134 -1.778,-16.317 0.762,-24.551 1.933,-6.202 5.44,-11.615 10.523,-16.24 5.084,-4.627 10.903,-8.516 17.46,-11.666 6.557,-3.152 13.443,-5.592 20.663,-7.32 7.217,-1.73 13.976,-2.745 20.281,-3.05 1.32,-0.102 3.05,-0.102 5.185,0 2.135,0.101 4.243,0.534 6.328,1.296 2.083,0.763 3.965,2.006 5.643,3.736 1.677,1.727 2.768,4.168 3.278,7.32 -2.34,-0.915 -5.695,-1.628 -10.064,-2.135 -4.373,-0.51 -9.226,-0.662 -14.564,-0.457 -5.337,0.202 -10.879,0.813 -16.621,1.829 -5.745,1.015 -11.132,2.617 -16.164,4.804 -5.033,2.185 -9.429,5.032 -13.191,8.539 -3.76,3.508 -6.302,7.802 -7.624,12.886 -1.525,5.284 -1.397,11.03 0.38,17.231 1.781,6.201 4.781,12.429 8.998,18.681 4.219,6.253 9.454,12.326 15.706,18.223 6.252,5.894 13.114,11.156 20.587,15.783 7.472,4.625 15.349,8.41 23.636,11.36 8.285,2.948 16.546,4.676 24.78,5.185 2.948,0.1 5.438,0.1 7.472,0 2.032,-0.102 3.684,-0.433 4.956,-0.99 1.27,-0.561 2.288,-1.373 3.05,-2.441 0.763,-1.067 1.346,-2.515 1.754,-4.346 0.915,-3.762 0.71,-8.768 -0.61,-15.02 -1.322,-6.253 -3.102,-13.294 -5.337,-21.12 -2.238,-7.829 -4.628,-16.164 -7.167,-25.009 -2.543,-8.845 -4.551,-17.716 -6.024,-26.609 -1.474,-8.898 -2.135,-17.537 -1.982,-25.925 0.152,-8.387 1.803,-15.988 4.956,-22.797 1.118,-2.44 2.616,-5.032 4.498,-7.777 1.88,-2.746 4.091,-5.314 6.634,-7.702 2.539,-2.389 5.413,-4.396 8.615,-6.022 3.203,-1.626 6.684,-2.594 10.446,-2.897 -2.645,2.846 -4.78,5.996 -6.405,9.454 -1.627,3.454 -2.82,7.216 -3.584,11.285 -0.762,4.064 -1.169,8.333 -1.219,12.808 -0.053,4.473 0.176,9.097 0.686,13.877 2.338,9.554 4.904,19.416 7.701,29.584 2.795,10.164 5.871,20.129 9.226,29.888 3.355,9.76 6.938,19.111 10.75,28.059 3.812,8.944 7.854,16.977 12.124,24.092 2.235,4.067 4.269,5.186 6.1,3.356 1.829,-1.829 3.964,-6.71 6.404,-14.639 1.422,-4.067 2.768,-9.508 4.041,-16.316 1.27,-6.813 2.261,-14.388 2.973,-22.722 0.711,-8.337 0.966,-17.155 0.763,-26.458 -0.205,-9.302 -1.017,-18.476 -2.44,-27.524 -1.424,-9.05 -3.659,-17.69 -6.709,-25.924 -3.05,-8.235 -7.091,-15.478 -12.124,-21.731 -5.032,-6.252 -11.184,-11.181 -18.451,-14.791 -7.27,-3.607 -15.935,-5.311 -26,-5.108 -5.39,0.102 -10.446,0.892 -15.173,2.363 -4.727,1.476 -8.973,3.407 -12.733,5.795 -3.762,2.39 -6.939,5.135 -9.531,8.234 -2.593,3.1 -4.448,6.252 -5.566,9.455 -1.12,3.203 -1.425,6.405 -0.915,9.607 0.507,3.202 2.083,6.124 4.727,8.768 -4.067,1.321 -7.7,1.728 -10.903,1.22 -3.202,-0.509 -5.821,-1.627 -7.853,-3.355 -2.035,-1.73 -3.431,-3.941 -4.193,-6.633 -0.763,-2.695 -0.739,-5.618 0.075,-8.769 1.423,-5.389 4.092,-10.293 8.007,-14.715 3.912,-4.422 8.768,-8.235 14.562,-11.437 5.795,-3.202 12.429,-5.741 19.9,-7.624 7.473,-1.88 15.529,-2.872 24.17,-2.974 11.08,-0.203 21.045,1.296 29.889,4.499 8.845,3.202 16.672,7.701 23.484,13.496 6.809,5.794 12.58,12.656 17.308,20.586 4.727,7.928 8.54,16.468 11.437,25.619 2.897,9.148 4.903,18.679 6.023,28.592 1.118,9.912 1.396,19.797 0.839,29.66 C 3.405,-18.961 2.083,-9.354 0,0"
             fill="#f1ae40"
             id="path4" />
          <path
             transform="matrix(2.7777777,0,0,-2.7777777,1754.2344,1687.1251)"
             d="m 0,0 c -0.407,-1.17 -0.865,-2.161 -1.372,-2.974 -1.83,-3.252 -3.608,-5.437 -5.338,-6.556 -1.728,-1.117 -3.175,-1.526 -4.346,-1.221 -1.168,0.306 -2.033,1.094 -2.591,2.364 -0.558,1.273 -0.635,2.695 -0.23,4.27 0.407,1.575 1.398,3.073 2.975,4.498 1.576,1.423 3.887,2.44 6.937,3.051 1.118,0.202 2.744,0.405 4.881,0.61 C 0.711,2.516 0.405,1.167 0,0 m -45.214,39.648 c -0.255,-3.408 -0.637,-6.889 -1.144,-10.446 -0.509,-3.56 -1.12,-6.915 -1.83,-10.065 -1.932,1.831 -3.686,4.042 -5.26,6.634 -1.578,2.592 -2.925,5.311 -4.042,8.159 0.508,2.642 1.194,5.108 2.058,7.396 0.863,2.287 1.855,4.193 2.974,5.717 0.305,0.405 0.61,0.764 0.915,1.067 l 0.916,0.916 c -0.306,0.71 -0.865,1.525 -1.678,2.44 -1.121,1.32 -2.492,2.235 -4.118,2.746 -1.627,0.507 -3.254,0.659 -4.879,0.457 0.305,3.252 1.243,5.895 2.822,7.929 1.574,2.032 3.937,3.049 7.089,3.049 1.118,0 2.262,-0.788 3.432,-2.363 1.167,-1.577 2.006,-3.839 2.516,-6.786 0.305,-1.933 0.481,-4.371 0.533,-7.318 0.052,-2.951 -0.052,-6.127 -0.304,-9.532 M -55.813,4.346 c -0.711,-0.102 -1.322,0.153 -1.83,0.762 -0.509,0.611 -0.941,1.422 -1.295,2.44 -0.358,1.015 -0.587,2.159 -0.687,3.431 -0.103,1.27 -0.152,2.517 -0.152,3.736 l -0.154,2.44 c 1.423,-1.524 2.873,-2.897 4.348,-4.118 1.473,-1.219 2.921,-2.339 4.346,-3.354 -1.323,-3.355 -2.848,-5.134 -4.576,-5.337 m -154.929,39.038 c 0,-1.22 -0.358,-2.974 -1.067,-5.262 -0.712,-2.286 -1.628,-4.753 -2.745,-7.394 -1.12,-2.646 -2.416,-5.289 -3.889,-7.93 -1.475,-2.646 -2.923,-4.983 -4.346,-7.015 -1.425,-2.035 -2.797,-3.584 -4.117,-4.651 -1.323,-1.068 -2.44,-1.296 -3.355,-0.687 -0.205,0.101 -0.205,0.84 0,2.211 0.203,1.373 0.508,3.025 0.915,4.956 0.405,1.93 0.863,4.042 1.373,6.329 0.507,2.288 0.991,4.396 1.448,6.33 0.458,1.929 0.838,3.53 1.144,4.802 0.305,1.27 0.458,1.956 0.458,2.059 1.929,6.607 3.836,12.25 5.718,16.927 1.88,4.674 4.141,7.827 6.786,9.454 0.305,0.099 0.71,0.203 1.219,0.304 0.508,0.101 1.016,-0.609 1.526,-2.134 z m -62.445,-13.419 c 0.05,0.306 0.077,0.659 0.077,1.067 0.1,2.441 0.633,5.262 1.601,8.463 0.965,3.202 2.134,6.353 3.507,9.455 1.372,3.1 2.821,5.921 4.346,8.463 1.525,2.54 2.997,4.37 4.422,5.49 0.405,-2.238 0.355,-4.754 -0.153,-7.548 -0.509,-2.797 -1.372,-5.668 -2.592,-8.616 -1.22,-2.95 -2.797,-5.947 -4.727,-8.998 -1.932,-3.049 -4.117,-5.946 -6.557,-8.691 0,0.304 0.024,0.61 0.076,0.915 m 368.8,12.732 c -0.713,3.813 -2.543,7.752 -5.491,11.819 -2.949,4.064 -7.318,8.082 -13.113,12.047 1.423,-3.355 2.287,-6.251 2.592,-8.692 0.305,-2.44 0.305,-4.83 0,-7.167 C 78.381,42.774 75.788,36.496 71.823,31.871 67.858,27.244 63.029,23.712 57.337,21.273 51.643,18.833 45.39,17.18 38.581,16.317 31.768,15.451 24.856,14.715 17.842,14.106 c -0.816,3.759 -1.703,7.572 -2.669,11.436 -0.968,3.862 -1.806,7.676 -2.517,11.437 -0.712,3.76 -1.169,7.344 -1.372,10.75 -0.204,3.406 0.1,6.533 0.915,9.379 0.306,1.015 0.889,2.211 1.754,3.584 0.862,1.372 1.906,2.642 3.127,3.812 1.219,1.168 1.801,2.51 3.275,3.12 1.473,0.609 -4.002,3.945 -2.375,3.54 0.305,0.61 6.797,-1.61 5.426,-0.185 -1.373,1.422 -2.286,2.394 -4.268,3.819 -1.983,1.422 -3.965,2.641 -5.948,3.659 C 11.208,79.473 9.707,79.93 8.692,79.83 5.032,79.117 2.364,77.643 0.687,75.408 -0.991,73.17 -2.34,70.833 -3.354,68.393 l -1.526,-3.049 -12.199,-31.72 -1.067,-2.592 c -0.016,-0.123 -0.017,-0.227 -0.03,-0.347 l -0.428,-1.025 c -2.44,-4.982 -4.907,-8.592 -7.396,-10.827 -2.492,-2.238 -4.855,-3.713 -7.092,-4.423 2.033,5.388 3.227,11.411 3.585,18.071 0.355,6.657 -0.484,13.495 -2.517,20.51 -1.424,5.082 -3.914,9.352 -7.471,12.81 -3.561,3.454 -8.185,5.284 -13.877,5.489 -2.848,0.1 -5.39,-0.457 -7.625,-1.678 -2.237,-1.219 -4.117,-2.873 -5.643,-4.955 -1.524,-2.085 -2.718,-4.525 -3.583,-7.32 -0.862,-2.797 -1.599,-7.64 -1.599,-7.243 L -78.991,32.1 c -0.814,-1.933 -1.702,-3.965 -2.668,-6.1 -0.967,-2.135 -1.982,-4.246 -3.049,-6.328 -1.067,-2.085 -2.135,-3.991 -3.203,-5.719 -1.068,-1.729 -2.111,-3.152 -3.126,-4.27 -0.816,-1.017 -1.779,-1.906 -2.898,-2.668 -1.12,-0.762 -2.187,-1.221 -3.202,-1.372 -1.017,-0.154 -1.83,0.049 -2.44,0.61 -0.61,0.557 -0.865,1.7 -0.762,3.43 0.1,0.711 0.355,2.642 0.762,5.795 0.405,3.15 0.966,7.065 1.678,11.742 0.711,4.675 1.472,9.886 2.287,15.631 0.812,5.742 1.625,11.512 2.44,17.307 1.93,13.724 4.167,29.073 6.71,46.053 0.609,2.845 0.786,5.234 0.533,7.167 -0.255,1.931 -0.686,3.608 -1.297,5.032 -0.712,1.526 -2.161,3.355 -4.345,5.489 -2.187,2.136 -4.449,4.195 -6.786,6.176 -2.339,1.984 -4.398,3.609 -6.176,4.881 -1.777,1.27 -2.668,1.854 -2.668,1.754 0.609,-1.221 0.94,-2.391 0.99,-3.508 0.054,-1.12 0.027,-2.645 -0.076,-4.575 0,-0.509 -0.1,-2.363 -0.305,-5.565 -0.202,-3.203 -0.507,-7.321 -0.914,-12.353 -0.405,-5.032 -0.839,-10.727 -1.297,-17.078 -0.457,-6.355 -0.914,-12.913 -1.373,-19.672 -0.457,-6.762 -0.937,-13.496 -1.448,-20.206 -0.127,-1.685 -0.249,-3.34 -0.367,-4.966 L -118.637,32.1 c -1.729,-3.865 -3.383,-7.778 -4.957,-11.743 -1.576,-3.964 -3.126,-7.268 -4.651,-9.912 -0.204,-0.407 -0.558,-1.017 -1.067,-1.83 -0.51,-0.814 -1.042,-1.448 -1.6,-1.905 -0.561,-0.457 -1.096,-0.534 -1.603,-0.23 -0.508,0.306 -0.814,1.374 -0.914,3.203 0,1.525 0.127,3.431 0.382,5.718 0.252,2.288 0.532,4.472 0.838,6.557 0.306,2.083 0.711,4.6 1.221,7.55 0.608,2.947 1.143,5.234 1.599,6.862 0.458,1.624 0.382,3.15 -0.227,4.573 -0.713,1.527 -1.958,3.151 -3.737,4.881 -1.78,1.728 -3.609,3.328 -5.489,4.803 -1.883,1.473 -3.533,2.644 -4.957,3.508 -1.424,0.862 -2.135,1.243 -2.135,1.144 l -1.22,-9.607 c -0.303,-1.221 -0.815,-2.848 -1.524,-4.88 -0.713,-2.035 -1.551,-4.194 -2.516,-6.481 -0.968,-2.289 -2.035,-4.651 -3.202,-7.091 -1.169,-2.441 -2.313,-4.753 -3.431,-6.939 -1.121,-2.187 -2.212,-4.094 -3.279,-5.718 -1.067,-1.627 -2.009,-2.797 -2.823,-3.507 -1.015,-0.816 -1.854,-1.044 -2.514,-0.687 -0.663,0.356 -0.892,1.144 -0.687,2.364 0.203,1.625 0.61,3.787 1.221,6.481 0.609,2.692 1.219,5.36 1.829,8.006 0.61,2.642 1.168,4.929 1.678,6.862 0.506,1.93 0.761,2.947 0.761,3.05 0.509,1.726 1.195,3.965 2.059,6.71 0.863,2.744 1.907,5.413 3.128,8.006 1.22,2.591 2.564,4.802 4.04,6.632 1.473,1.832 3.125,2.746 4.957,2.746 1.829,0 3.148,-0.434 3.964,-1.297 0.812,-0.865 1.498,-1.806 2.057,-2.821 0.559,-1.017 1.119,-1.932 1.679,-2.745 0.556,-0.815 1.498,-1.22 2.82,-1.22 1.119,0 1.728,0.558 1.832,1.677 0.099,1.119 -0.104,2.339 -0.612,3.66 -0.509,1.423 -1.373,2.872 -2.593,4.347 -1.22,1.472 -2.667,2.794 -4.345,3.965 -1.677,1.168 -3.582,2.107 -5.719,2.82 -2.135,0.71 -4.32,1.068 -6.557,1.068 -3.658,0 -6.811,-0.968 -9.454,-2.898 -2.644,-1.931 -4.88,-4.321 -6.71,-7.167 -1.83,-2.847 -3.328,-5.846 -4.499,-8.997 -0.235,-0.637 -0.455,-1.248 -0.673,-1.855 -0.004,0.113 -0.011,0.232 -0.011,0.331 L -183.599,32.1 c -1.627,-3.865 -3.227,-7.778 -4.802,-11.743 -1.578,-3.964 -3.126,-7.268 -4.652,-9.912 -0.205,-0.407 -0.636,-0.99 -1.296,-1.754 -0.662,-0.761 -1.296,-1.348 -1.906,-1.754 -0.61,-0.407 -1.143,-0.482 -1.601,-0.227 -0.457,0.252 -0.586,1.243 -0.381,2.973 0.099,0.711 0.354,2.67 0.762,5.872 0.405,3.201 0.965,7.114 1.677,11.741 0.71,4.625 1.499,9.81 2.364,15.555 0.863,5.742 1.727,11.537 2.592,17.383 0.863,5.846 1.728,11.538 2.593,17.08 0.862,5.539 1.625,10.445 2.287,14.715 0.66,4.27 1.347,8.997 2.059,14.182 0.61,2.947 0.786,5.388 0.534,7.319 -0.255,1.93 -0.687,3.608 -1.297,5.033 -0.609,1.524 -2.008,3.354 -4.193,5.489 -2.188,2.135 -4.449,4.168 -6.786,6.099 -2.34,1.931 -4.422,3.533 -6.252,4.805 -1.83,1.27 -2.745,1.854 -2.745,1.754 0.507,-1.221 0.786,-2.364 0.838,-3.432 0.05,-1.067 0.077,-2.568 0.077,-4.498 0,-0.305 -0.102,-1.578 -0.305,-3.812 -0.205,-2.238 -0.484,-5.085 -0.839,-8.54 -0.358,-3.458 -0.712,-7.32 -1.067,-11.589 -0.358,-4.271 -0.739,-8.642 -1.144,-13.115 -0.407,-4.475 -0.789,-8.845 -1.144,-13.114 -0.357,-4.27 -0.636,-8.134 -0.838,-11.589 -0.51,1.525 -1.373,2.745 -2.593,3.659 -1.22,0.915 -2.542,1.651 -3.965,2.212 -1.424,0.557 -2.745,0.888 -3.964,0.99 -1.22,0.1 -2.035,0.1 -2.44,0 -1.932,-0.61 -3.839,-1.905 -5.719,-3.888 -1.882,-1.982 -3.683,-4.373 -5.413,-7.167 -1.728,-2.797 -3.328,-5.897 -4.804,-9.302 -1.473,-3.407 -2.718,-6.838 -3.736,-10.294 -0.673,-2.424 -1.258,-4.806 -1.769,-7.152 l -1.585,-3.979 c -2.034,-4.373 -3.712,-7.907 -5.032,-10.599 -1.323,-2.695 -2.416,-4.855 -3.279,-6.48 -0.865,-1.628 -1.577,-2.848 -2.135,-3.661 -0.56,-0.814 -1.093,-1.524 -1.601,-2.134 -1.424,-1.525 -2.897,-2.797 -4.422,-3.813 -1.525,-1.017 -3.05,-1.576 -4.575,-1.677 -1.425,0 -2.618,0.432 -3.584,1.296 -0.967,0.863 -1.703,2.007 -2.211,3.432 -0.51,1.422 -0.891,3.099 -1.144,5.032 -0.254,1.93 -0.381,3.965 -0.381,6.1 4.675,2.439 8.769,5.489 12.276,9.148 3.507,3.661 6.303,7.55 8.388,11.666 2.082,4.117 3.328,8.285 3.735,12.505 0.405,4.217 -0.205,8.158 -1.83,11.818 -0.509,0.914 -1.448,1.88 -2.82,2.897 -1.373,1.015 -2.848,1.906 -4.423,2.669 -1.577,0.762 -3.126,1.372 -4.651,1.829 -1.525,0.459 -2.592,0.686 -3.202,0.686 h -0.153 c -3.355,-0.204 -6.305,-1.321 -8.844,-3.354 -2.543,-2.035 -4.728,-4.627 -6.558,-7.777 -1.83,-3.153 -3.302,-6.686 -4.422,-10.598 -1.118,-3.915 -1.906,-7.879 -2.364,-11.894 -0.457,-4.018 -0.61,-7.907 -0.457,-11.667 0.152,-3.761 0.534,-7.014 1.144,-9.758 0.712,-3.256 1.677,-6.279 2.897,-9.075 1.22,-2.796 2.669,-5.259 4.346,-7.394 1.678,-2.136 3.584,-3.814 5.718,-5.032 2.136,-1.221 4.523,-1.88 7.168,-1.984 3.05,-0.099 5.768,0.611 8.158,2.135 2.388,1.525 4.651,3.76 6.786,6.71 2.135,2.947 4.193,6.531 6.176,10.751 0.158,0.336 0.317,0.698 0.476,1.041 0.042,-3.481 0.362,-6.604 0.972,-9.352 0.61,-2.745 2.187,-4.982 4.727,-6.71 2.543,-1.729 5.39,-3.254 8.54,-4.575 1.014,-0.405 2.058,-0.252 3.126,0.457 1.068,0.711 2.185,1.779 3.354,3.203 1.169,1.422 2.388,3.1 3.66,5.032 1.27,1.931 2.516,3.913 3.737,5.948 1.422,2.234 2.616,4.751 3.583,7.548 0.965,2.796 1.754,5.209 2.364,7.243 l -0.61,-13.724 c 0.1,-2.34 0.71,-4.474 1.83,-6.405 1.117,-1.932 2.439,-3.583 3.964,-4.956 1.525,-1.371 3.1,-2.389 4.728,-3.049 1.625,-0.662 3.049,-0.89 4.27,-0.686 1.829,0.304 3.606,1.346 5.337,3.126 1.728,1.777 3.302,4.09 4.728,6.938 1.319,2.643 2.515,5.514 3.583,8.615 0.462,1.345 0.933,2.67 1.405,3.987 -0.122,-4.569 0.197,-8.565 0.958,-11.992 0.609,-2.745 2.187,-4.982 4.726,-6.71 2.543,-1.729 6.321,-3.998 9.37,-5.318 1.118,-0.507 2.387,-0.227 3.812,0.84 1.422,1.067 1.863,3.309 3.287,5.241 1.424,1.93 2.822,4.167 4.193,6.709 1.374,2.541 2.593,5.032 3.661,7.473 1.067,2.44 1.93,4.727 2.593,6.862 0.66,2.135 1.041,3.709 1.144,4.727 0.1,-0.51 0.201,-1.323 0.306,-2.44 0.099,-1.12 0.226,-2.39 0.379,-3.813 0.153,-1.424 0.329,-2.896 0.535,-4.422 0.201,-1.525 0.456,-2.897 0.761,-4.116 0.306,-2.239 0.966,-4.324 1.983,-6.253 1.015,-1.932 2.185,-3.61 3.508,-5.033 1.319,-1.424 2.717,-2.515 4.192,-3.278 1.473,-0.763 3.222,0.003 4.646,0.003 1.931,0.1 3.437,-0.055 5.116,1.827 1.675,1.88 3.224,4.243 4.648,7.091 1.424,2.643 2.67,5.514 3.737,8.615 1.068,3.101 2.159,6.124 3.279,9.074 l 1.829,5.49 0.611,1.067 c 0.013,0.036 0.022,0.069 0.034,0.107 -0.211,-3.508 -0.401,-6.724 -0.569,-9.637 -0.252,-4.423 -0.381,-7.651 -0.381,-9.684 0.205,-4.676 1.372,-8.362 3.507,-11.055 2.136,-2.695 5.745,-4.041 10.827,-4.041 3.151,0 6.024,1.091 8.616,3.278 2.593,2.185 4.88,4.777 6.862,7.777 1.983,2.997 3.683,6.047 5.109,9.15 0.58,1.265 1.086,2.407 1.549,3.478 0.044,-0.397 0.074,-0.792 0.127,-1.19 0.511,-3.814 1.628,-7.448 3.355,-10.905 2.134,-4.372 4.78,-7.395 7.93,-9.073 3.149,-1.678 6.403,-2.615 9.759,-2.82 3.557,-0.202 6.912,0.609 10.064,2.439 3.151,1.83 5.948,4.523 8.387,8.082 0.509,-0.102 0.939,-0.152 1.297,-0.152 h 1.297 c 2.843,0 5.437,0.736 7.776,2.211 2.338,1.473 4.473,3.328 6.404,5.566 1.93,2.236 3.608,4.728 5.033,7.473 1.422,2.744 2.693,5.386 3.812,7.929 l 0.457,1.067 c 0.367,1.067 0.677,2.074 0.958,3.055 l 7.125,17.074 c 0.405,-2.439 0.862,-5.185 1.373,-8.234 0.507,-3.05 1.04,-6.229 1.601,-9.532 0.558,-3.304 1.015,-6.583 1.372,-9.835 0.355,-3.255 0.585,-6.354 0.686,-9.301 l -2.591,-0.306 c -3.253,-0.51 -6.15,-1.349 -8.694,-2.516 -2.54,-1.169 -4.65,-2.568 -6.327,-4.194 -1.678,-1.627 -2.871,-3.456 -3.584,-5.489 -0.71,-2.035 -0.812,-4.118 -0.305,-6.253 1.12,-4.574 3.432,-8.182 6.938,-10.826 3.508,-2.643 7.041,-4.066 10.599,-4.271 1.32,-0.099 2.998,0 5.032,0.306 2.032,0.305 4.065,0.915 6.099,1.829 2.033,0.916 3.889,2.188 5.566,3.813 1.678,1.627 2.821,3.66 3.431,6.1 1.119,1.933 1.779,4.094 1.984,6.481 0.202,2.386 0.202,4.904 0,7.547 3.659,0 7.495,0.051 11.513,0.154 4.014,0.1 8.055,0.304 12.122,0.609 4.066,0.306 8.132,0.763 12.2,1.373 4.065,0.61 7.979,1.473 11.741,2.592 4.271,1.221 8.312,2.947 12.124,5.185 3.813,2.235 7.064,4.803 9.759,7.701 2.693,2.897 4.701,6.073 6.023,9.531 1.321,3.454 1.626,7.091 0.916,10.902"
             fill="#f1ae40"
             id="path5" />
          <path
             transform="matrix(2.7777777,0,0,-2.7777777,920.87808,1355.7396)"
             d="m 0,0 c -2.085,9.353 -4.906,17.994 -8.463,25.924 -2.745,5.997 -6.381,10.877 -10.903,14.639 -4.525,3.76 -9.176,6.405 -13.953,7.929 -4.78,1.526 -9.226,1.956 -13.343,1.297 -4.118,-0.662 -7.144,-2.466 -9.074,-5.413 -3.255,-5.287 -5.871,-10.98 -7.853,-17.08 -1.983,-6.1 -4.094,-13.166 -6.328,-21.196 0.202,3.862 0.252,7.573 0.152,11.132 -0.103,3.557 -0.458,7.014 -1.068,10.37 -1.119,3.048 -2.771,6.149 -4.956,9.301 -2.187,3.15 -4.803,6.024 -7.853,8.617 -3.05,2.591 -6.381,4.726 -9.988,6.404 -3.61,1.677 -7.346,2.516 -11.208,2.516 -7.727,0 -16.038,-1.323 -24.933,-3.964 -8.896,-2.646 -17.665,-6.305 -26.305,-10.98 -8.642,-4.678 -16.8,-10.217 -24.475,-16.622 -7.674,-6.404 -14.105,-13.319 -19.29,-20.738 -5.184,-7.423 -8.792,-15.2 -10.827,-23.333 -2.032,-8.133 -1.777,-16.316 0.762,-24.55 1.933,-6.202 5.44,-11.615 10.523,-16.24 5.084,-4.627 10.903,-8.516 17.46,-11.666 6.557,-3.153 13.443,-5.593 20.663,-7.32 7.217,-1.73 13.976,-2.745 20.281,-3.05 1.32,-0.102 3.05,-0.102 5.185,0 2.135,0.1 4.244,0.534 6.329,1.296 2.082,0.763 3.965,2.006 5.642,3.736 1.677,1.727 2.768,4.168 3.278,7.32 -2.34,-0.915 -5.695,-1.628 -10.064,-2.135 -4.373,-0.51 -9.226,-0.662 -14.563,-0.458 -5.338,0.203 -10.88,0.814 -16.622,1.829 -5.745,1.016 -11.132,2.618 -16.164,4.805 -5.032,2.185 -9.429,5.032 -13.191,8.539 -3.76,3.508 -6.302,7.801 -7.624,12.886 -1.525,5.284 -1.397,11.029 0.381,17.231 1.78,6.201 4.78,12.429 8.997,18.681 4.22,6.253 9.455,12.325 15.706,18.223 6.252,5.894 13.115,11.156 20.587,15.783 7.472,4.625 15.35,8.41 23.637,11.36 8.284,2.948 16.545,4.676 24.779,5.185 2.948,0.1 5.438,0.1 7.473,0 2.032,-0.102 3.683,-0.433 4.955,-0.991 1.27,-0.56 2.288,-1.373 3.05,-2.441 0.763,-1.066 1.346,-2.514 1.754,-4.346 0.915,-3.761 0.71,-8.767 -0.61,-15.02 -1.322,-6.252 -3.102,-13.293 -5.337,-21.119 -2.238,-7.83 -4.628,-16.165 -7.167,-25.009 -2.543,-8.845 -4.551,-17.716 -6.024,-26.609 -1.474,-8.899 -2.135,-17.538 -1.982,-25.925 0.152,-8.387 1.803,-15.988 4.956,-22.798 1.118,-2.439 2.616,-5.032 4.498,-7.776 1.88,-2.746 4.092,-5.314 6.634,-7.702 2.54,-2.39 5.413,-4.396 8.615,-6.023 3.203,-1.625 6.684,-2.593 10.446,-2.897 -2.645,2.846 -4.78,5.997 -6.404,9.455 -1.628,3.454 -2.821,7.216 -3.584,11.284 -0.763,4.064 -1.17,8.334 -1.22,12.809 -0.053,4.472 0.176,9.097 0.686,13.877 2.338,9.554 4.904,19.416 7.701,29.583 2.795,10.164 5.871,20.13 9.226,29.889 3.355,9.76 6.938,19.111 10.75,28.059 3.812,8.944 7.854,16.976 12.124,24.092 2.235,4.066 4.27,5.186 6.1,3.356 1.829,-1.829 3.964,-6.71 6.404,-14.639 1.422,-4.068 2.769,-9.508 4.041,-16.317 1.27,-6.812 2.262,-14.387 2.974,-22.721 0.71,-8.338 0.965,-17.155 0.762,-26.458 -0.205,-9.302 -1.017,-18.477 -2.44,-27.524 -1.424,-9.05 -3.659,-17.69 -6.709,-25.924 -3.05,-8.235 -7.091,-15.478 -12.124,-21.731 -5.032,-6.252 -11.184,-11.181 -18.451,-14.791 -7.27,-3.607 -15.935,-5.311 -26,-5.108 -5.39,0.102 -10.446,0.891 -15.173,2.363 -4.727,1.475 -8.973,3.407 -12.733,5.794 -3.762,2.391 -6.938,5.136 -9.531,8.235 -2.592,3.1 -4.448,6.252 -5.566,9.455 -1.12,3.203 -1.425,6.405 -0.915,9.606 0.507,3.202 2.083,6.124 4.727,8.769 -4.067,1.32 -7.7,1.728 -10.903,1.219 -3.202,-0.508 -5.82,-1.626 -7.853,-3.354 -2.035,-1.73 -3.431,-3.941 -4.193,-6.634 -0.763,-2.694 -0.739,-5.617 0.076,-8.768 1.422,-5.389 4.091,-10.293 8.006,-14.715 3.912,-4.422 8.768,-8.235 14.563,-11.437 5.794,-3.202 12.428,-5.742 19.9,-7.624 7.472,-1.88 15.528,-2.872 24.17,-2.974 11.079,-0.203 21.044,1.296 29.889,4.499 8.844,3.202 16.671,7.701 23.483,13.496 6.809,5.794 12.58,12.656 17.308,20.586 4.728,7.928 8.54,16.468 11.437,25.619 2.897,9.148 4.903,18.679 6.023,28.591 1.118,9.913 1.396,19.798 0.839,29.66 C 3.405,-18.961 2.083,-9.354 0,0"
             fill="#ffffff"
             id="path6" />
          <path
             transform="matrix(2.7777777,0,0,-2.7777777,1759.3613,1682.9613)"
             d="m 0,0 c -0.408,-1.171 -0.865,-2.161 -1.372,-2.974 -1.83,-3.252 -3.608,-5.437 -5.338,-6.557 -1.728,-1.117 -3.176,-1.525 -4.346,-1.22 -1.168,0.306 -2.033,1.094 -2.591,2.364 -0.559,1.272 -0.635,2.695 -0.23,4.269 0.407,1.576 1.398,3.074 2.974,4.499 1.577,1.423 3.888,2.44 6.937,3.051 1.119,0.202 2.745,0.404 4.881,0.609 C 0.71,2.516 0.404,1.167 0,0 m -45.215,39.648 c -0.255,-3.408 -0.637,-6.889 -1.143,-10.447 -0.51,-3.559 -1.12,-6.914 -1.83,-10.064 -1.933,1.83 -3.686,4.042 -5.261,6.634 -1.577,2.592 -2.924,5.31 -4.041,8.159 0.507,2.642 1.193,5.108 2.058,7.395 0.863,2.288 1.855,4.194 2.974,5.718 0.305,0.405 0.61,0.763 0.915,1.067 0.305,0.306 0.609,0.611 0.915,0.916 -0.306,0.709 -0.864,1.525 -1.677,2.439 -1.121,1.321 -2.493,2.236 -4.118,2.746 -1.628,0.508 -3.254,0.66 -4.88,0.458 0.305,3.251 1.244,5.895 2.822,7.929 1.574,2.032 3.938,3.049 7.09,3.049 1.118,0 2.261,-0.788 3.432,-2.363 1.167,-1.577 2.006,-3.839 2.516,-6.786 0.305,-1.933 0.481,-4.372 0.533,-7.319 0.051,-2.95 -0.052,-6.126 -0.305,-9.531 M -55.813,4.346 c -0.711,-0.102 -1.322,0.153 -1.83,0.762 -0.509,0.611 -0.941,1.422 -1.295,2.44 -0.358,1.015 -0.587,2.159 -0.687,3.431 -0.103,1.27 -0.152,2.517 -0.152,3.736 l -0.154,2.44 c 1.423,-1.524 2.872,-2.897 4.347,-4.118 1.473,-1.219 2.921,-2.34 4.346,-3.354 -1.322,-3.356 -2.848,-5.135 -4.575,-5.337 m -154.929,39.038 c 0,-1.22 -0.358,-2.974 -1.068,-5.262 -0.712,-2.286 -1.627,-4.753 -2.745,-7.394 -1.119,-2.646 -2.416,-5.289 -3.888,-7.93 -1.475,-2.646 -2.923,-4.984 -4.346,-7.015 -1.425,-2.035 -2.797,-3.584 -4.117,-4.651 -1.323,-1.068 -2.44,-1.297 -3.355,-0.687 -0.205,0.101 -0.205,0.839 0,2.211 0.202,1.373 0.508,3.025 0.915,4.956 0.405,1.93 0.863,4.041 1.372,6.329 0.508,2.288 0.992,4.396 1.449,6.329 0.458,1.93 0.838,3.531 1.143,4.803 0.305,1.27 0.458,1.956 0.458,2.059 1.93,6.607 3.836,12.25 5.718,16.927 1.88,4.674 4.142,7.827 6.787,9.454 0.305,0.099 0.709,0.203 1.219,0.304 0.508,0.101 1.015,-0.61 1.525,-2.134 z m -62.445,-13.419 c 0.05,0.305 0.076,0.659 0.076,1.067 0.1,2.44 0.634,5.261 1.601,8.463 0.965,3.202 2.135,6.353 3.508,9.455 1.372,3.1 2.82,5.921 4.346,8.463 1.524,2.54 2.997,4.37 4.422,5.49 0.405,-2.238 0.355,-4.754 -0.153,-7.549 -0.509,-2.797 -1.372,-5.668 -2.592,-8.616 -1.22,-2.949 -2.797,-5.946 -4.727,-8.997 -1.933,-3.049 -4.117,-5.946 -6.558,-8.691 0,0.304 0.024,0.61 0.077,0.915 m 368.8,12.732 c -0.714,3.813 -2.544,7.752 -5.491,11.819 -2.949,4.064 -7.318,8.082 -13.113,12.047 1.422,-3.356 2.287,-6.252 2.592,-8.693 0.305,-2.439 0.305,-4.829 0,-7.167 C 78.38,42.773 75.788,36.496 71.823,31.871 67.858,27.244 63.028,23.712 57.337,21.272 51.642,18.832 45.39,17.18 38.58,16.317 31.768,15.451 24.856,14.715 17.841,14.105 c -0.815,3.759 -1.702,7.573 -2.668,11.437 -0.968,3.862 -1.806,7.676 -2.517,11.437 -0.712,3.759 -1.169,7.343 -1.372,10.75 -0.205,3.405 0.1,6.532 0.915,9.378 0.306,1.016 0.889,2.211 1.753,3.584 0.863,1.373 1.907,2.642 3.127,3.813 1.22,1.168 2.566,2.059 4.04,2.668 1.473,0.61 3.025,0.711 4.652,0.306 0.304,0.61 -0.229,1.624 -1.601,3.049 -1.373,1.423 -3.051,2.846 -5.032,4.271 -1.984,1.421 -3.965,2.641 -5.949,3.659 C 11.208,79.473 9.706,79.93 8.692,79.83 5.032,79.117 2.363,77.642 0.686,75.407 -0.991,73.17 -2.34,70.833 -3.355,68.393 l -1.525,-3.05 -12.199,-31.719 -1.067,-2.592 c -0.017,-0.123 -0.017,-0.227 -0.031,-0.347 l -0.427,-1.025 c -2.44,-4.982 -4.907,-8.592 -7.396,-10.828 -2.492,-2.237 -4.856,-3.712 -7.092,-4.422 2.033,5.388 3.227,11.411 3.584,18.071 0.356,6.657 -0.483,13.495 -2.516,20.51 -1.424,5.082 -3.914,9.352 -7.472,12.81 -3.56,3.454 -8.185,5.284 -13.876,5.489 -2.849,0.1 -5.391,-0.457 -7.626,-1.678 -2.236,-1.219 -4.116,-2.873 -5.643,-4.956 -1.524,-2.085 -2.717,-4.524 -3.583,-7.319 -0.862,-2.797 -1.599,-7.64 -1.599,-7.243 l -7.168,-17.995 c -0.814,-1.932 -1.703,-3.965 -2.668,-6.1 -0.967,-2.134 -1.983,-4.246 -3.05,-6.327 -1.067,-2.085 -2.135,-3.991 -3.203,-5.719 -1.067,-1.729 -2.11,-3.152 -3.126,-4.27 -0.815,-1.017 -1.779,-1.906 -2.898,-2.669 -1.119,-0.762 -2.186,-1.22 -3.202,-1.371 -1.017,-0.154 -1.83,0.049 -2.439,0.609 -0.61,0.558 -0.865,1.701 -0.762,3.431 0.1,0.711 0.354,2.642 0.762,5.795 0.404,3.15 0.965,7.065 1.677,11.742 0.711,4.675 1.472,9.885 2.288,15.631 0.812,5.741 1.625,11.512 2.44,17.307 1.93,13.724 4.167,29.073 6.709,46.052 0.61,2.846 0.786,5.235 0.534,7.167 -0.255,1.932 -0.686,3.608 -1.297,5.032 -0.712,1.527 -2.161,3.356 -4.345,5.49 -2.187,2.136 -4.45,4.194 -6.786,6.176 -2.34,1.984 -4.398,3.609 -6.176,4.881 -1.778,1.27 -2.669,1.854 -2.669,1.754 0.61,-1.221 0.941,-2.391 0.991,-3.508 0.054,-1.121 0.026,-2.645 -0.076,-4.575 0,-0.51 -0.1,-2.364 -0.305,-5.566 -0.202,-3.202 -0.507,-7.32 -0.914,-12.352 -0.405,-5.032 -0.84,-10.727 -1.297,-17.079 -0.457,-6.354 -0.915,-12.912 -1.373,-19.672 -0.457,-6.762 -0.937,-13.495 -1.448,-20.205 -0.127,-1.685 -0.25,-3.34 -0.367,-4.967 l -6.646,-16.687 c -1.729,-3.864 -3.383,-7.777 -4.957,-11.742 -1.577,-3.964 -3.126,-7.269 -4.651,-9.912 -0.204,-0.407 -0.559,-1.017 -1.067,-1.83 -0.51,-0.815 -1.042,-1.448 -1.601,-1.905 -0.56,-0.458 -1.095,-0.534 -1.602,-0.23 -0.509,0.306 -0.815,1.374 -0.915,3.203 0,1.525 0.128,3.43 0.383,5.718 0.252,2.287 0.532,4.472 0.838,6.557 0.306,2.083 0.711,4.6 1.22,7.549 0.609,2.947 1.143,5.235 1.599,6.863 0.459,1.624 0.383,3.15 -0.226,4.573 -0.713,1.527 -1.959,3.151 -3.737,4.881 -1.781,1.728 -3.61,3.328 -5.49,4.803 -1.882,1.473 -3.533,2.644 -4.957,3.508 -1.424,0.862 -2.135,1.243 -2.135,1.143 l -1.219,-9.607 c -0.304,-1.22 -0.816,-2.848 -1.524,-4.879 -0.713,-2.035 -1.551,-4.194 -2.516,-6.481 -0.968,-2.289 -2.035,-4.651 -3.202,-7.091 -1.169,-2.441 -2.314,-4.753 -3.432,-6.94 -1.12,-2.186 -2.211,-4.093 -3.278,-5.717 -1.068,-1.627 -2.01,-2.798 -2.823,-3.507 -1.016,-0.816 -1.855,-1.044 -2.514,-0.687 -0.663,0.356 -0.892,1.144 -0.687,2.363 0.202,1.626 0.609,3.788 1.22,6.481 0.609,2.693 1.22,5.361 1.83,8.007 0.609,2.642 1.168,4.928 1.677,6.862 0.507,1.93 0.761,2.947 0.761,3.05 0.51,1.726 1.196,3.965 2.059,6.709 0.863,2.745 1.908,5.413 3.128,8.007 1.221,2.591 2.565,4.802 4.04,6.632 1.473,1.831 3.126,2.746 4.957,2.746 1.829,0 3.149,-0.435 3.964,-1.297 0.812,-0.865 1.498,-1.806 2.058,-2.822 0.558,-1.017 1.119,-1.931 1.679,-2.744 0.556,-0.815 1.498,-1.22 2.82,-1.22 1.119,0 1.727,0.558 1.832,1.677 0.099,1.119 -0.105,2.338 -0.612,3.66 -0.51,1.423 -1.373,2.872 -2.593,4.346 -1.22,1.473 -2.668,2.795 -4.346,3.965 -1.676,1.168 -3.581,2.108 -5.719,2.821 -2.134,0.71 -4.32,1.068 -6.557,1.068 -3.658,0 -6.811,-0.968 -9.453,-2.898 -2.645,-1.931 -4.88,-4.321 -6.71,-7.167 -1.83,-2.847 -3.328,-5.846 -4.499,-8.997 -0.235,-0.637 -0.456,-1.248 -0.673,-1.856 -0.005,0.114 -0.012,0.232 -0.012,0.332 l -7.32,-17.995 c -1.627,-3.864 -3.228,-7.777 -4.802,-11.742 -1.578,-3.964 -3.127,-7.269 -4.653,-9.912 -0.204,-0.407 -0.635,-0.991 -1.296,-1.754 -0.662,-0.761 -1.296,-1.348 -1.905,-1.754 -0.61,-0.407 -1.144,-0.482 -1.601,-0.227 -0.458,0.252 -0.586,1.243 -0.381,2.973 0.099,0.711 0.354,2.669 0.761,5.871 0.406,3.202 0.965,7.115 1.678,11.742 0.71,4.625 1.498,9.809 2.363,15.555 0.864,5.741 1.728,11.537 2.593,17.383 0.863,5.845 1.728,11.538 2.592,17.08 0.863,5.539 1.625,10.445 2.288,14.715 0.659,4.27 1.346,8.997 2.058,14.181 0.61,2.947 0.787,5.388 0.535,7.32 -0.256,1.93 -0.687,3.608 -1.297,5.033 -0.61,1.524 -2.009,3.354 -4.193,5.489 -2.188,2.135 -4.449,4.168 -6.787,6.099 -2.339,1.93 -4.422,3.533 -6.251,4.805 -1.831,1.27 -2.746,1.854 -2.746,1.754 0.508,-1.221 0.787,-2.364 0.839,-3.432 0.05,-1.067 0.076,-2.568 0.076,-4.499 0,-0.305 -0.102,-1.577 -0.304,-3.811 -0.205,-2.238 -0.485,-5.086 -0.839,-8.54 -0.358,-3.458 -0.713,-7.321 -1.067,-11.589 -0.358,-4.271 -0.74,-8.643 -1.144,-13.115 -0.408,-4.475 -0.789,-8.845 -1.144,-13.115 -0.357,-4.27 -0.636,-8.134 -0.838,-11.588 -0.511,1.524 -1.373,2.745 -2.593,3.659 -1.22,0.915 -2.542,1.651 -3.965,2.211 -1.424,0.558 -2.745,0.889 -3.964,0.991 -1.221,0.1 -2.036,0.1 -2.441,0 -1.932,-0.61 -3.838,-1.905 -5.718,-3.889 -1.882,-1.981 -3.684,-4.372 -5.414,-7.167 -1.727,-2.797 -3.328,-5.896 -4.803,-9.302 -1.473,-3.406 -2.719,-6.837 -3.736,-10.293 -0.673,-2.424 -1.258,-4.806 -1.769,-7.153 l -1.585,-3.979 c -2.035,-4.372 -3.712,-7.906 -5.032,-10.598 -1.323,-2.695 -2.416,-4.855 -3.279,-6.48 -0.865,-1.628 -1.577,-2.848 -2.135,-3.661 -0.56,-0.814 -1.094,-1.525 -1.601,-2.134 -1.425,-1.526 -2.898,-2.797 -4.422,-3.813 -1.525,-1.017 -3.05,-1.577 -4.575,-1.678 -1.425,0 -2.618,0.432 -3.584,1.297 -0.967,0.863 -1.703,2.006 -2.211,3.432 -0.51,1.421 -0.891,3.099 -1.144,5.032 -0.255,1.93 -0.381,3.965 -0.381,6.1 4.675,2.438 8.768,5.489 12.276,9.148 3.507,3.66 6.302,7.549 8.387,11.666 2.082,4.117 3.328,8.285 3.736,12.505 0.405,4.217 -0.205,8.157 -1.83,11.818 -0.51,0.914 -1.449,1.88 -2.821,2.897 -1.373,1.015 -2.847,1.906 -4.422,2.669 -1.577,0.762 -3.126,1.372 -4.651,1.829 -1.525,0.459 -2.592,0.686 -3.203,0.686 h -0.152 c -3.355,-0.205 -6.305,-1.322 -8.845,-3.354 -2.542,-2.035 -4.727,-4.627 -6.557,-7.777 -1.83,-3.153 -3.303,-6.686 -4.422,-10.599 -1.118,-3.915 -1.906,-7.879 -2.364,-11.894 -0.457,-4.017 -0.61,-7.906 -0.457,-11.666 0.152,-3.761 0.533,-7.014 1.143,-9.758 0.713,-3.256 1.678,-6.279 2.897,-9.075 1.221,-2.796 2.669,-5.259 4.347,-7.394 1.677,-2.137 3.583,-3.814 5.718,-5.032 2.136,-1.221 4.522,-1.881 7.168,-1.984 3.05,-0.099 5.768,0.611 8.157,2.135 2.388,1.525 4.652,3.76 6.787,6.71 2.134,2.947 4.193,6.531 6.176,10.751 0.158,0.336 0.317,0.697 0.475,1.041 0.043,-3.482 0.363,-6.604 0.972,-9.353 0.61,-2.744 2.188,-4.982 4.728,-6.709 2.542,-1.729 5.39,-3.255 8.54,-4.575 1.014,-0.405 2.058,-0.253 3.126,0.457 1.067,0.711 2.184,1.779 3.354,3.203 1.168,1.422 2.388,3.1 3.66,5.032 1.27,1.93 2.516,3.913 3.736,5.948 1.423,2.234 2.616,4.751 3.584,7.548 0.965,2.796 1.754,5.209 2.363,7.243 l -0.609,-13.724 c 0.1,-2.34 0.709,-4.474 1.829,-6.405 1.118,-1.933 2.44,-3.583 3.965,-4.956 1.525,-1.372 3.1,-2.39 4.728,-3.049 1.625,-0.662 3.049,-0.89 4.269,-0.686 1.83,0.303 3.607,1.345 5.338,3.125 1.727,1.778 3.302,4.091 4.727,6.939 1.32,2.643 2.516,5.514 3.584,8.615 0.462,1.345 0.932,2.669 1.405,3.986 -0.122,-4.568 0.197,-8.564 0.957,-11.992 0.61,-2.744 2.187,-4.982 4.727,-6.709 2.542,-1.729 5.337,-3.255 8.387,-4.575 1.118,-0.507 2.388,-0.228 3.813,0.839 1.421,1.067 2.845,2.566 4.269,4.499 1.424,1.93 2.822,4.166 4.193,6.708 1.373,2.541 2.593,5.033 3.661,7.473 1.067,2.44 1.93,4.728 2.592,6.863 0.661,2.135 1.042,3.709 1.144,4.727 0.1,-0.51 0.202,-1.323 0.306,-2.44 0.099,-1.12 0.227,-2.39 0.379,-3.813 0.154,-1.424 0.33,-2.897 0.536,-4.422 0.201,-1.525 0.456,-2.897 0.761,-4.116 0.306,-2.239 0.965,-4.324 1.982,-6.253 1.016,-1.932 2.185,-3.61 3.508,-5.033 1.32,-1.424 2.718,-2.515 4.193,-3.278 1.473,-0.763 2.922,-1.143 4.346,-1.143 1.93,0.099 3.736,1.09 5.415,2.973 1.676,1.88 3.225,4.243 4.649,7.091 1.424,2.643 2.67,5.514 3.737,8.615 1.067,3.1 2.158,6.124 3.279,9.074 l 1.829,5.489 0.611,1.067 c 0.012,0.037 0.022,0.07 0.034,0.108 -0.211,-3.508 -0.401,-6.725 -0.569,-9.637 -0.253,-4.424 -0.381,-7.651 -0.381,-9.684 0.205,-4.676 1.372,-8.363 3.507,-11.055 2.136,-2.696 5.745,-4.041 10.827,-4.041 3.15,0 6.024,1.09 8.616,3.278 2.592,2.185 4.88,4.777 6.862,7.776 1.983,2.998 3.683,6.048 5.108,9.151 0.581,1.264 1.087,2.407 1.549,3.478 0.045,-0.397 0.075,-0.793 0.128,-1.191 0.511,-3.813 1.627,-7.448 3.354,-10.904 2.135,-4.372 4.781,-7.396 7.93,-9.073 3.15,-1.678 6.404,-2.615 9.759,-2.82 3.557,-0.203 6.913,0.608 10.065,2.439 3.15,1.83 5.948,4.523 8.387,8.082 0.508,-0.102 0.938,-0.152 1.297,-0.152 h 1.296 c 2.844,0 5.437,0.736 7.777,2.211 2.337,1.473 4.472,3.328 6.404,5.565 1.93,2.237 3.608,4.729 5.033,7.473 1.422,2.745 2.692,5.387 3.812,7.929 l 0.457,1.067 c 0.367,1.068 0.677,2.075 0.958,3.056 l 7.124,17.074 c 0.405,-2.439 0.863,-5.185 1.373,-8.234 0.508,-3.05 1.041,-6.229 1.602,-9.532 0.557,-3.304 1.014,-6.584 1.372,-9.835 0.354,-3.255 0.584,-6.354 0.685,-9.301 l -2.591,-0.306 c -3.253,-0.51 -6.15,-1.349 -8.693,-2.516 -2.54,-1.17 -4.65,-2.569 -6.328,-4.194 -1.677,-1.628 -2.87,-3.457 -3.584,-5.489 -0.709,-2.035 -0.812,-4.118 -0.304,-6.253 1.12,-4.575 3.431,-8.182 6.938,-10.826 3.508,-2.643 7.041,-4.066 10.598,-4.271 1.321,-0.099 2.999,0 5.032,0.306 2.033,0.305 4.066,0.914 6.099,1.829 2.034,0.916 3.889,2.187 5.567,3.813 1.678,1.626 2.821,3.66 3.431,6.1 1.119,1.932 1.778,4.093 1.983,6.481 0.203,2.386 0.203,4.903 0,7.547 3.659,0 7.496,0.051 11.513,0.153 4.014,0.1 8.056,0.305 12.123,0.61 4.065,0.306 8.132,0.763 12.199,1.373 4.065,0.61 7.979,1.473 11.742,2.592 4.271,1.221 8.311,2.947 12.124,5.185 3.813,2.234 7.064,4.803 9.759,7.701 2.692,2.897 4.701,6.073 6.023,9.531 1.32,3.454 1.625,7.09 0.916,10.902"
             fill="#ffffff"
             id="path7" />
          <path
             transform="matrix(2.7777777,0,0,-2.7777777,930.2855,1348.9849)"
             d="m 0,0 c -2.085,9.353 -4.906,17.994 -8.463,25.924 -2.745,5.997 -6.381,10.878 -10.903,14.639 -4.525,3.761 -9.176,6.405 -13.953,7.929 -4.78,1.527 -9.226,1.957 -13.343,1.297 -4.118,-0.662 -7.144,-2.466 -9.074,-5.413 -3.255,-5.287 -5.871,-10.98 -7.853,-17.08 -1.983,-6.1 -4.094,-13.166 -6.328,-21.196 0.202,3.863 0.252,7.573 0.152,11.132 -0.103,3.557 -0.458,7.015 -1.068,10.37 -1.119,3.049 -2.771,6.149 -4.956,9.301 -2.187,3.151 -4.803,6.024 -7.853,8.617 -3.05,2.591 -6.381,4.726 -9.988,6.404 -3.61,1.678 -7.346,2.516 -11.208,2.516 -7.727,0 -16.038,-1.323 -24.933,-3.964 -8.896,-2.646 -17.665,-6.305 -26.305,-10.98 -8.642,-4.678 -16.8,-10.217 -24.475,-16.622 -7.674,-6.404 -14.105,-13.318 -19.29,-20.738 -5.184,-7.423 -8.792,-15.2 -10.827,-23.332 -2.032,-8.134 -1.777,-16.317 0.762,-24.551 1.933,-6.202 5.44,-11.615 10.523,-16.24 5.084,-4.627 10.903,-8.516 17.46,-11.665 6.557,-3.153 13.443,-5.593 20.663,-7.321 7.217,-1.73 13.976,-2.745 20.281,-3.05 1.32,-0.102 3.05,-0.102 5.185,0 2.135,0.101 4.244,0.534 6.329,1.296 2.082,0.763 3.965,2.006 5.642,3.737 1.677,1.726 2.768,4.167 3.278,7.319 -2.34,-0.915 -5.695,-1.628 -10.064,-2.135 -4.373,-0.51 -9.226,-0.662 -14.563,-0.457 -5.338,0.202 -10.88,0.813 -16.622,1.829 -5.745,1.015 -11.132,2.617 -16.164,4.804 -5.032,2.185 -9.429,5.032 -13.191,8.539 -3.76,3.508 -6.302,7.802 -7.624,12.886 -1.525,5.284 -1.397,11.03 0.381,17.231 1.78,6.201 4.78,12.429 8.997,18.681 4.22,6.253 9.455,12.326 15.706,18.223 6.252,5.894 13.115,11.156 20.587,15.783 7.472,4.625 15.35,8.41 23.637,11.36 8.284,2.948 16.545,4.676 24.779,5.185 2.948,0.101 5.438,0.101 7.473,0 2.032,-0.102 3.683,-0.433 4.955,-0.99 1.27,-0.561 2.288,-1.373 3.05,-2.441 0.763,-1.067 1.346,-2.515 1.754,-4.346 0.915,-3.762 0.71,-8.768 -0.61,-15.02 -1.322,-6.253 -3.102,-13.293 -5.337,-21.12 -2.238,-7.829 -4.628,-16.164 -7.167,-25.009 -2.543,-8.845 -4.551,-17.716 -6.024,-26.609 -1.474,-8.898 -2.135,-17.537 -1.982,-25.925 0.152,-8.387 1.803,-15.988 4.956,-22.797 1.118,-2.44 2.616,-5.032 4.498,-7.777 1.88,-2.746 4.092,-5.314 6.634,-7.701 2.54,-2.39 5.413,-4.397 8.615,-6.023 3.203,-1.626 6.684,-2.594 10.446,-2.897 -2.645,2.846 -4.78,5.996 -6.404,9.454 -1.628,3.454 -2.821,7.216 -3.584,11.285 -0.763,4.064 -1.17,8.333 -1.22,12.808 -0.053,4.473 0.176,9.097 0.686,13.877 2.338,9.554 4.904,19.416 7.701,29.584 2.795,10.164 5.871,20.129 9.226,29.888 3.355,9.76 6.938,19.111 10.75,28.059 3.812,8.944 7.854,16.977 12.124,24.093 2.235,4.066 4.27,5.185 6.1,3.355 1.829,-1.829 3.964,-6.71 6.404,-14.639 1.422,-4.067 2.769,-9.508 4.041,-16.316 1.27,-6.812 2.262,-14.388 2.974,-22.722 0.71,-8.337 0.965,-17.155 0.762,-26.458 -0.205,-9.302 -1.017,-18.476 -2.44,-27.523 -1.424,-9.051 -3.659,-17.691 -6.709,-25.925 -3.05,-8.235 -7.091,-15.478 -12.124,-21.731 -5.032,-6.252 -11.184,-11.181 -18.451,-14.791 -7.27,-3.607 -15.935,-5.311 -26,-5.108 -5.39,0.102 -10.446,0.892 -15.173,2.364 -4.727,1.475 -8.973,3.406 -12.733,5.794 -3.762,2.391 -6.938,5.135 -9.531,8.235 -2.592,3.099 -4.448,6.251 -5.566,9.454 -1.12,3.203 -1.425,6.405 -0.915,9.607 0.507,3.202 2.083,6.124 4.727,8.768 -4.067,1.321 -7.7,1.728 -10.903,1.22 -3.202,-0.509 -5.82,-1.627 -7.853,-3.355 -2.035,-1.73 -3.431,-3.941 -4.193,-6.633 -0.763,-2.695 -0.739,-5.618 0.076,-8.769 1.422,-5.389 4.091,-10.292 8.006,-14.715 3.912,-4.422 8.768,-8.235 14.563,-11.437 5.794,-3.202 12.428,-5.741 19.9,-7.624 7.472,-1.88 15.528,-2.872 24.17,-2.974 11.079,-0.203 21.044,1.296 29.889,4.499 8.844,3.202 16.671,7.701 23.483,13.496 6.809,5.794 12.58,12.656 17.308,20.587 4.728,7.928 8.54,16.467 11.437,25.618 2.897,9.148 4.903,18.679 6.023,28.592 1.118,9.913 1.396,19.797 0.839,29.66 C 3.405,-18.961 2.083,-9.354 0,0"
             fill="#1779be"
             id="path8" />
          <path
             transform="matrix(2.7777777,0,0,-2.7777777,1768.7688,1676.2068)"
             d="m 0,0 c -0.408,-1.17 -0.865,-2.161 -1.372,-2.974 -1.83,-3.252 -3.608,-5.437 -5.338,-6.556 -1.728,-1.117 -3.176,-1.526 -4.346,-1.221 -1.168,0.306 -2.033,1.094 -2.591,2.364 -0.559,1.273 -0.635,2.695 -0.23,4.27 0.407,1.575 1.398,3.073 2.974,4.498 1.577,1.423 3.888,2.44 6.937,3.051 1.119,0.202 2.745,0.405 4.881,0.61 C 0.71,2.516 0.404,1.167 0,0 m -45.215,39.648 c -0.255,-3.408 -0.637,-6.889 -1.143,-10.446 -0.51,-3.56 -1.12,-6.915 -1.83,-10.064 -1.933,1.83 -3.686,4.041 -5.261,6.633 -1.577,2.592 -2.924,5.311 -4.041,8.159 0.507,2.642 1.193,5.108 2.058,7.396 0.863,2.287 1.855,4.193 2.974,5.717 0.305,0.405 0.61,0.764 0.915,1.067 0.305,0.306 0.609,0.611 0.915,0.916 -0.306,0.71 -0.864,1.525 -1.677,2.44 -1.121,1.32 -2.493,2.235 -4.118,2.746 -1.628,0.507 -3.254,0.659 -4.88,0.457 0.305,3.252 1.244,5.895 2.822,7.929 1.574,2.032 3.938,3.049 7.09,3.049 1.118,0 2.261,-0.788 3.432,-2.363 1.167,-1.577 2.006,-3.839 2.516,-6.786 0.305,-1.933 0.481,-4.371 0.533,-7.318 0.051,-2.951 -0.052,-6.127 -0.305,-9.532 M -55.813,4.346 c -0.711,-0.102 -1.322,0.153 -1.83,0.763 -0.509,0.61 -0.941,1.421 -1.295,2.439 -0.358,1.015 -0.587,2.159 -0.687,3.431 -0.103,1.27 -0.152,2.517 -0.152,3.736 l -0.154,2.44 c 1.423,-1.524 2.872,-2.897 4.347,-4.117 1.473,-1.22 2.921,-2.34 4.346,-3.355 -1.322,-3.355 -2.848,-5.134 -4.575,-5.337 m -154.929,39.038 c 0,-1.22 -0.358,-2.974 -1.068,-5.261 -0.712,-2.287 -1.627,-4.754 -2.745,-7.395 -1.119,-2.646 -2.416,-5.289 -3.888,-7.93 -1.475,-2.646 -2.923,-4.983 -4.346,-7.015 -1.425,-2.035 -2.797,-3.584 -4.117,-4.651 -1.323,-1.068 -2.44,-1.296 -3.355,-0.687 -0.205,0.101 -0.205,0.84 0,2.212 0.202,1.372 0.508,3.024 0.915,4.955 0.405,1.93 0.863,4.042 1.372,6.329 0.508,2.288 0.992,4.396 1.449,6.33 0.458,1.929 0.838,3.53 1.143,4.802 0.305,1.271 0.458,1.957 0.458,2.059 1.93,6.607 3.836,12.25 5.718,16.927 1.88,4.674 4.142,7.827 6.787,9.455 0.305,0.098 0.709,0.202 1.219,0.303 0.508,0.101 1.015,-0.609 1.525,-2.134 z m -62.445,-13.419 c 0.05,0.306 0.076,0.66 0.076,1.067 0.1,2.441 0.634,5.262 1.601,8.463 0.965,3.202 2.135,6.353 3.508,9.455 1.372,3.1 2.82,5.921 4.346,8.464 1.524,2.539 2.997,4.37 4.422,5.489 0.405,-2.238 0.355,-4.754 -0.153,-7.548 -0.509,-2.797 -1.372,-5.668 -2.592,-8.616 -1.22,-2.95 -2.797,-5.947 -4.727,-8.997 -1.933,-3.05 -4.117,-5.947 -6.558,-8.692 0,0.304 0.024,0.61 0.077,0.915 m 368.8,12.732 c -0.714,3.813 -2.544,7.752 -5.491,11.819 -2.949,4.064 -7.318,8.082 -13.113,12.047 1.422,-3.355 2.287,-6.251 2.592,-8.692 0.305,-2.44 0.305,-4.83 0,-7.167 C 78.38,42.774 75.788,36.496 71.823,31.871 67.858,27.244 63.028,23.712 57.337,21.273 51.642,18.833 45.39,17.18 38.58,16.317 31.768,15.451 24.856,14.715 17.841,14.106 c -0.815,3.759 -1.702,7.573 -2.668,11.437 -0.968,3.861 -1.806,7.675 -2.517,11.436 -0.712,3.76 -1.169,7.344 -1.372,10.751 -0.205,3.405 0.1,6.532 0.915,9.378 0.306,1.015 0.889,2.211 1.753,3.584 0.863,1.372 1.907,2.642 3.127,3.812 1.22,1.168 2.566,2.059 4.04,2.669 1.473,0.609 3.025,0.711 4.652,0.306 0.304,0.609 -0.229,1.624 -1.601,3.048 -1.373,1.423 -3.051,2.846 -5.032,4.271 -1.984,1.422 -3.965,2.641 -5.949,3.659 C 11.208,79.473 9.706,79.93 8.692,79.83 5.032,79.117 2.363,77.643 0.686,75.408 -0.991,73.17 -2.34,70.833 -3.355,68.393 l -1.525,-3.049 -12.199,-31.72 -1.067,-2.592 c -0.017,-0.123 -0.017,-0.227 -0.031,-0.346 l -0.427,-1.026 c -2.44,-4.982 -4.907,-8.592 -7.396,-10.827 -2.492,-2.238 -4.856,-3.713 -7.092,-4.423 2.033,5.388 3.227,11.411 3.584,18.071 0.356,6.657 -0.483,13.496 -2.516,20.51 -1.424,5.082 -3.914,9.352 -7.472,12.81 -3.56,3.454 -8.185,5.284 -13.876,5.489 -2.849,0.1 -5.391,-0.457 -7.626,-1.677 -2.236,-1.22 -4.116,-2.874 -5.643,-4.956 -1.524,-2.085 -2.717,-4.525 -3.583,-7.32 -0.862,-2.797 -1.599,-7.64 -1.599,-7.243 L -78.991,32.1 c -0.814,-1.933 -1.703,-3.965 -2.668,-6.1 -0.967,-2.135 -1.983,-4.246 -3.05,-6.328 -1.067,-2.085 -2.135,-3.991 -3.203,-5.719 -1.067,-1.729 -2.11,-3.152 -3.126,-4.27 -0.815,-1.017 -1.779,-1.906 -2.898,-2.668 -1.119,-0.762 -2.186,-1.221 -3.202,-1.372 -1.017,-0.153 -1.83,0.049 -2.439,0.61 -0.61,0.557 -0.865,1.7 -0.762,3.43 0.1,0.711 0.354,2.642 0.762,5.795 0.404,3.15 0.965,7.065 1.677,11.742 0.711,4.675 1.472,9.886 2.288,15.631 0.812,5.742 1.625,11.512 2.44,17.307 1.93,13.724 4.167,29.073 6.709,46.053 0.61,2.845 0.786,5.234 0.534,7.167 -0.255,1.931 -0.686,3.608 -1.297,5.032 -0.712,1.526 -2.161,3.355 -4.345,5.489 -2.187,2.136 -4.45,4.195 -6.786,6.176 -2.34,1.984 -4.398,3.609 -6.176,4.881 -1.778,1.27 -2.669,1.854 -2.669,1.754 0.61,-1.22 0.941,-2.391 0.991,-3.508 0.054,-1.12 0.026,-2.645 -0.076,-4.575 0,-0.509 -0.1,-2.363 -0.305,-5.565 -0.202,-3.203 -0.507,-7.321 -0.914,-12.353 -0.405,-5.032 -0.84,-10.727 -1.297,-17.078 -0.457,-6.355 -0.915,-12.913 -1.373,-19.672 -0.457,-6.762 -0.937,-13.496 -1.448,-20.206 -0.127,-1.685 -0.25,-3.34 -0.367,-4.966 L -118.637,32.1 c -1.729,-3.865 -3.383,-7.778 -4.957,-11.743 -1.577,-3.964 -3.126,-7.268 -4.651,-9.912 -0.204,-0.407 -0.559,-1.017 -1.067,-1.83 -0.51,-0.814 -1.042,-1.448 -1.601,-1.905 -0.56,-0.457 -1.095,-0.533 -1.602,-0.23 -0.509,0.306 -0.815,1.374 -0.915,3.203 0,1.526 0.128,3.431 0.383,5.718 0.252,2.288 0.532,4.472 0.838,6.557 0.306,2.083 0.711,4.6 1.22,7.55 0.609,2.947 1.143,5.234 1.599,6.862 0.459,1.624 0.383,3.15 -0.226,4.573 -0.713,1.527 -1.959,3.151 -3.737,4.881 -1.781,1.728 -3.61,3.328 -5.49,4.804 -1.882,1.472 -3.533,2.643 -4.957,3.507 -1.424,0.863 -2.135,1.244 -2.135,1.144 l -1.219,-9.607 c -0.304,-1.221 -0.816,-2.848 -1.524,-4.88 -0.713,-2.035 -1.551,-4.194 -2.516,-6.481 -0.968,-2.288 -2.035,-4.651 -3.202,-7.091 -1.169,-2.441 -2.314,-4.753 -3.432,-6.939 -1.12,-2.187 -2.211,-4.094 -3.278,-5.718 -1.068,-1.627 -2.01,-2.797 -2.823,-3.507 -1.016,-0.815 -1.855,-1.044 -2.514,-0.687 -0.663,0.356 -0.892,1.144 -0.687,2.364 0.202,1.625 0.609,3.787 1.22,6.481 0.609,2.692 1.22,5.361 1.83,8.006 0.609,2.643 1.168,4.929 1.677,6.862 0.507,1.931 0.761,2.948 0.761,3.05 0.51,1.726 1.196,3.965 2.059,6.71 0.863,2.744 1.908,5.413 3.128,8.006 1.221,2.591 2.565,4.802 4.04,6.632 1.473,1.832 3.126,2.746 4.957,2.746 1.829,0 3.149,-0.434 3.964,-1.297 0.812,-0.865 1.498,-1.806 2.058,-2.821 0.558,-1.017 1.119,-1.932 1.679,-2.745 0.556,-0.815 1.498,-1.22 2.82,-1.22 1.119,0 1.727,0.558 1.832,1.677 0.099,1.119 -0.105,2.339 -0.612,3.66 -0.51,1.423 -1.373,2.872 -2.593,4.347 -1.22,1.472 -2.668,2.794 -4.346,3.965 -1.676,1.168 -3.581,2.107 -5.719,2.821 -2.134,0.709 -4.32,1.068 -6.557,1.068 -3.658,0 -6.811,-0.968 -9.453,-2.899 -2.645,-1.931 -4.88,-4.321 -6.71,-7.167 -1.83,-2.847 -3.328,-5.846 -4.499,-8.997 -0.235,-0.637 -0.456,-1.248 -0.673,-1.855 -0.005,0.113 -0.012,0.232 -0.012,0.331 l -7.32,-17.994 c -1.627,-3.865 -3.228,-7.778 -4.802,-11.743 -1.578,-3.964 -3.127,-7.268 -4.653,-9.912 -0.204,-0.407 -0.635,-0.99 -1.296,-1.754 -0.662,-0.761 -1.296,-1.348 -1.905,-1.753 -0.61,-0.408 -1.144,-0.483 -1.601,-0.228 -0.458,0.252 -0.586,1.243 -0.381,2.973 0.099,0.711 0.354,2.67 0.761,5.872 0.406,3.202 0.965,7.114 1.678,11.741 0.71,4.625 1.498,9.81 2.363,15.555 0.864,5.742 1.728,11.537 2.593,17.383 0.863,5.846 1.728,11.538 2.592,17.08 0.863,5.539 1.625,10.445 2.288,14.715 0.659,4.27 1.346,8.997 2.058,14.182 0.61,2.947 0.787,5.388 0.535,7.319 -0.256,1.93 -0.687,3.608 -1.297,5.033 -0.61,1.524 -2.009,3.355 -4.193,5.489 -2.188,2.135 -4.449,4.168 -6.787,6.099 -2.339,1.931 -4.422,3.533 -6.251,4.805 -1.831,1.27 -2.746,1.854 -2.746,1.754 0.508,-1.22 0.787,-2.364 0.839,-3.432 0.05,-1.067 0.076,-2.568 0.076,-4.498 0,-0.305 -0.102,-1.578 -0.304,-3.812 -0.205,-2.238 -0.485,-5.085 -0.839,-8.54 -0.358,-3.458 -0.713,-7.32 -1.067,-11.589 -0.358,-4.271 -0.74,-8.642 -1.144,-13.115 -0.407,-4.474 -0.789,-8.844 -1.144,-13.114 -0.358,-4.27 -0.636,-8.134 -0.838,-11.589 -0.51,1.525 -1.373,2.745 -2.593,3.66 -1.22,0.914 -2.542,1.65 -3.965,2.211 -1.424,0.557 -2.745,0.888 -3.964,0.99 -1.221,0.101 -2.036,0.101 -2.441,0 -1.932,-0.61 -3.838,-1.905 -5.718,-3.888 -1.882,-1.982 -3.684,-4.373 -5.414,-7.167 -1.727,-2.797 -3.328,-5.897 -4.803,-9.302 -1.473,-3.407 -2.719,-6.838 -3.736,-10.294 -0.673,-2.424 -1.258,-4.806 -1.769,-7.152 l -1.585,-3.979 c -2.035,-4.373 -3.712,-7.907 -5.032,-10.599 -1.323,-2.694 -2.416,-4.855 -3.279,-6.48 -0.865,-1.628 -1.577,-2.848 -2.135,-3.661 -0.56,-0.814 -1.094,-1.524 -1.601,-2.134 -1.425,-1.525 -2.898,-2.797 -4.422,-3.813 -1.525,-1.017 -3.05,-1.576 -4.575,-1.677 -1.425,0 -2.618,0.432 -3.584,1.296 -0.967,0.863 -1.703,2.007 -2.211,3.432 -0.51,1.422 -0.891,3.099 -1.144,5.032 -0.255,1.93 -0.381,3.965 -0.381,6.1 4.675,2.439 8.768,5.489 12.276,9.148 3.507,3.661 6.302,7.55 8.387,11.666 2.082,4.118 3.328,8.285 3.736,12.505 0.405,4.217 -0.205,8.158 -1.83,11.818 -0.51,0.914 -1.449,1.88 -2.821,2.897 -1.373,1.016 -2.847,1.906 -4.422,2.67 -1.577,0.762 -3.126,1.371 -4.651,1.828 -1.525,0.459 -2.592,0.686 -3.203,0.686 h -0.152 c -3.355,-0.204 -6.305,-1.321 -8.845,-3.354 -2.542,-2.035 -4.727,-4.627 -6.557,-7.777 -1.83,-3.153 -3.303,-6.685 -4.422,-10.598 -1.118,-3.915 -1.906,-7.879 -2.364,-11.894 -0.457,-4.018 -0.61,-7.907 -0.457,-11.667 0.152,-3.76 0.533,-7.014 1.143,-9.758 0.713,-3.256 1.678,-6.279 2.897,-9.075 1.221,-2.796 2.669,-5.259 4.347,-7.394 1.677,-2.136 3.583,-3.814 5.718,-5.032 2.136,-1.221 4.522,-1.88 7.168,-1.984 3.05,-0.099 5.768,0.611 8.157,2.135 2.388,1.526 4.652,3.76 6.787,6.71 2.134,2.947 4.193,6.531 6.176,10.751 0.158,0.336 0.317,0.698 0.475,1.041 0.043,-3.481 0.363,-6.604 0.972,-9.352 0.61,-2.745 2.188,-4.982 4.728,-6.71 2.542,-1.729 5.39,-3.254 8.54,-4.575 1.014,-0.405 2.058,-0.252 3.126,0.457 1.067,0.711 2.184,1.779 3.354,3.204 1.168,1.421 2.388,3.099 3.66,5.031 1.27,1.931 2.516,3.913 3.736,5.948 1.423,2.234 2.616,4.751 3.584,7.548 0.965,2.796 1.754,5.21 2.363,7.243 l -0.609,-13.724 c 0.1,-2.34 0.709,-4.474 1.829,-6.405 1.118,-1.932 2.44,-3.583 3.965,-4.956 1.525,-1.371 3.1,-2.389 4.728,-3.049 1.625,-0.662 3.049,-0.889 4.269,-0.686 1.83,0.304 3.607,1.346 5.338,3.126 1.727,1.777 3.302,4.09 4.727,6.938 1.32,2.643 2.516,5.514 3.584,8.615 0.462,1.346 0.932,2.67 1.405,3.987 -0.122,-4.569 0.197,-8.565 0.957,-11.992 0.61,-2.745 2.187,-4.982 4.727,-6.71 2.542,-1.729 5.337,-3.254 8.387,-4.575 1.118,-0.507 2.388,-0.227 3.813,0.84 1.421,1.067 2.845,2.566 4.269,4.498 1.424,1.93 2.822,4.167 4.193,6.709 1.373,2.541 2.593,5.032 3.661,7.473 1.067,2.44 1.93,4.727 2.592,6.862 0.661,2.135 1.042,3.709 1.144,4.727 0.1,-0.51 0.202,-1.323 0.306,-2.44 0.099,-1.12 0.227,-2.39 0.379,-3.812 0.154,-1.425 0.33,-2.897 0.536,-4.423 0.201,-1.525 0.456,-2.897 0.761,-4.116 0.306,-2.239 0.965,-4.324 1.982,-6.253 1.016,-1.932 2.185,-3.61 3.508,-5.033 1.32,-1.424 2.718,-2.515 4.193,-3.278 1.473,-0.763 2.922,-1.143 4.346,-1.143 1.93,0.099 3.736,1.091 5.415,2.973 1.676,1.88 3.225,4.243 4.649,7.091 1.424,2.643 2.67,5.514 3.737,8.615 1.067,3.101 2.158,6.124 3.279,9.074 l 1.829,5.49 0.611,1.067 c 0.012,0.036 0.022,0.07 0.034,0.107 -0.211,-3.508 -0.401,-6.724 -0.569,-9.637 -0.253,-4.423 -0.381,-7.651 -0.381,-9.684 0.205,-4.676 1.372,-8.362 3.507,-11.055 2.136,-2.695 5.745,-4.041 10.827,-4.041 3.15,0 6.024,1.091 8.616,3.278 2.592,2.185 4.88,4.777 6.862,7.777 1.983,2.997 3.683,6.047 5.108,9.15 0.581,1.265 1.087,2.408 1.549,3.478 0.045,-0.397 0.075,-0.792 0.128,-1.19 0.511,-3.814 1.627,-7.448 3.354,-10.905 2.135,-4.372 4.781,-7.395 7.93,-9.073 3.15,-1.678 6.404,-2.615 9.759,-2.82 3.557,-0.202 6.913,0.609 10.065,2.439 3.15,1.83 5.948,4.523 8.387,8.083 0.508,-0.103 0.938,-0.153 1.297,-0.153 h 1.296 c 2.844,0 5.437,0.736 7.777,2.211 2.337,1.473 4.472,3.328 6.404,5.566 1.93,2.236 3.608,4.728 5.033,7.473 1.422,2.744 2.692,5.386 3.812,7.929 l 0.457,1.067 c 0.367,1.067 0.677,2.074 0.958,3.055 l 7.124,17.074 c 0.405,-2.439 0.863,-5.184 1.373,-8.234 0.508,-3.049 1.041,-6.229 1.602,-9.532 0.557,-3.304 1.014,-6.583 1.372,-9.835 0.354,-3.255 0.584,-6.354 0.685,-9.301 l -2.591,-0.306 c -3.253,-0.51 -6.15,-1.349 -8.693,-2.516 -2.54,-1.169 -4.65,-2.568 -6.328,-4.194 -1.677,-1.627 -2.87,-3.456 -3.584,-5.489 -0.709,-2.035 -0.812,-4.118 -0.304,-6.252 1.12,-4.575 3.431,-8.183 6.938,-10.827 3.508,-2.643 7.041,-4.066 10.598,-4.271 1.321,-0.099 2.999,0 5.032,0.306 2.033,0.305 4.066,0.915 6.099,1.829 2.034,0.916 3.889,2.188 5.567,3.813 1.678,1.627 2.821,3.66 3.431,6.1 1.119,1.933 1.778,4.094 1.983,6.481 0.203,2.386 0.203,4.904 0,7.547 3.659,0 7.496,0.051 11.513,0.154 4.014,0.1 8.056,0.305 12.123,0.609 4.065,0.306 8.132,0.764 12.199,1.373 4.065,0.61 7.979,1.473 11.742,2.592 4.271,1.221 8.311,2.947 12.124,5.185 3.813,2.235 7.064,4.803 9.759,7.701 2.692,2.898 4.701,6.073 6.023,9.531 1.32,3.454 1.625,7.091 0.916,10.902"
             fill="#1779be"
             id="path9" />
          <path
             transform="matrix(2.7777777,0,0,-2.7777777,1564.841,1742.9629)"
             d="m 0,0 c -1.503,0 -3.147,-0.987 -3.977,-2.367 -0.63,-0.96 -0.739,-1.983 -0.295,-2.809 0.39,-0.723 1.146,-1.162 2.034,-1.178 0.092,-0.009 0.182,-0.013 0.273,-0.013 1.58,0 3.085,1.184 3.84,2.325 0.597,1.002 0.669,2.054 0.196,2.886 C 1.66,-0.433 0.886,0 0,0"
             fill="#f1ae40"
             id="path10" />
          <path
             transform="matrix(2.7777777,0,0,-2.7777777,1213.17,1851.5621)"
             d="m 0,0 0.008,0.038 c 0.532,3.129 2.677,6.465 6.569,10.208 2.722,2.702 6.134,5.282 10.723,8.108 4.537,2.669 9.331,4.685 14.283,6.009 C 26.579,17.311 22.137,11.885 17.371,6.988 14.742,4.297 11.156,0.903 6.729,-1.466 4.908,-2.42 2.805,-3.399 1.032,-3.028 -0.397,-2.669 -0.166,-0.791 0,0 m 83.47,10.903 c -0.535,0.133 -0.707,0.346 -0.842,0.572 -0.503,0.84 0.12,2.639 0.983,4.092 0.826,1.553 2.182,3.063 3.811,4.245 1.383,0.982 2.926,1.717 3.819,1.836 -0.132,-0.567 -0.531,-1.549 -1.116,-2.451 -1.702,-2.94 -3.997,-5.799 -6.655,-8.294 M 70.649,7.875 c 0.833,2.096 1.945,3.887 2.892,5.319 2.442,3.291 5.505,6.958 9.698,9.202 1.001,0.539 2.084,0.974 3.278,1.316 -0.611,-0.38 -1.154,-0.766 -1.59,-1.111 C 82.675,20.833 81.102,18.97 80.112,16.896 79.024,14.555 78.096,11.854 79.426,9.631 79.665,9.164 80.067,8.727 80.58,8.359 79.107,7.207 77.526,6.243 75.789,5.434 74.465,4.879 72.003,3.846 70.46,4.53 69.64,4.895 70.324,7.004 70.649,7.875 m 54.697,0.41 c 0.82,1.719 1.986,3.48 3.465,5.234 3.449,4.094 6.776,6.891 10.156,8.543 1.925,0.906 3.508,1.346 4.839,1.346 0.312,0 0.611,-0.024 0.867,-0.069 0.5,-0.101 1.67,-0.334 1.203,-2.688 -0.103,-0.471 -0.478,-1.325 -1.703,-2.736 -2.29,-2.753 -5.363,-5.445 -9.687,-8.484 -4.127,-3.024 -9.118,-5.194 -9.914,-4.708 -0.139,0.137 -0.495,0.801 0.774,3.562 m 52.926,12.578 c -0.954,-0.501 -1.786,-1.122 -2.615,-1.956 l -2.533,-2.545 h 0.388 c -0.497,-0.474 -1.009,-0.946 -1.525,-1.423 -3.773,-3.771 -11.516,-9.509 -16.199,-9.884 0.037,0.459 0.29,1.412 0.926,2.582 1.274,2.442 3.411,5.96 6.34,8.839 3.095,2.948 5.903,4.8 8.853,5.837 0.85,0.318 2.852,0.977 4.82,0.977 1.454,0 2.889,-0.359 3.827,-1.484 l 0.06,-0.115 c 0.093,-0.179 0.189,-0.346 0.288,-0.5 -0.98,0.294 -2.086,-0.093 -2.63,-0.328 m 46.971,1.417 c 0.42,0.965 2.026,1.86 3.591,1.86 0.193,0 0.386,-0.014 0.575,-0.043 -0.038,-0.061 -0.084,-0.124 -0.138,-0.185 -0.633,-0.707 -1.473,-1.249 -1.703,-1.306 z M 215.129,7.711 c 2.605,2.819 6.593,4.366 9.777,5.199 0.289,-3.466 -3.162,-6.116 -6.537,-7.452 -0.988,-0.369 -2.042,-0.722 -3.089,-0.811 -1.361,-0.158 -1.877,0.048 -2.02,0.129 0.011,0.527 0.739,1.797 1.869,2.935 m 7.392,8.95 c 0.122,-0.143 0.245,-0.286 0.369,-0.431 0.024,-0.028 0.048,-0.055 0.073,-0.084 -0.704,-0.208 -1.389,-0.436 -2.053,-0.681 0.552,0.403 1.094,0.806 1.611,1.196 m -40.595,-34.026 c -2.492,-3.268 -5.544,-6.978 -9.279,-9.716 -1.551,-1.112 -2.494,-1.558 -3.007,-1.734 0.134,1.188 1.09,2.778 1.757,3.887 l 0.193,0.321 c 2.366,3.864 5.763,7.25 8.754,10.113 2.659,2.499 5.58,4.995 8.986,7.673 -2.324,-3.534 -4.736,-7.148 -7.404,-10.544 m 55.834,33.18 -0.152,0.204 c -0.918,1.229 -6.173,1.244 -6.397,1.244 -0.657,0 -1.332,0 -2.019,-0.034 -0.58,0.825 -1.351,1.502 -2.101,2.163 -0.224,0.196 -0.43,0.379 -0.619,0.551 l 0.899,-0.251 c 1.733,-0.492 4.14,1.468 4.542,1.873 1.343,1.351 2.114,3.412 0.834,4.943 -1.95,2.529 -6.534,1.455 -8.428,0.547 -1.999,-0.902 -3.465,-2.585 -3.927,-4.534 -0.201,-0.973 -0.134,-1.915 0.204,-2.855 -2.503,-1.62 -4.92,-3.336 -7.26,-4.998 -1.933,-1.371 -3.93,-2.789 -5.986,-4.161 2.231,3.294 4.623,6.642 7.218,9.844 0.219,0.252 0.451,0.509 0.686,0.77 0.832,0.924 1.693,1.879 2.309,2.913 0.646,1.073 0.275,1.814 -0.002,2.159 -0.767,0.951 -1.981,0.54 -2.447,0.381 -0.846,-0.355 -1.515,-0.803 -2.187,-1.255 -0.886,-0.634 -1.524,-1.169 -2.537,-2.124 -1.03,-0.995 -1.944,-2.097 -2.848,-3.187 -0.494,-0.595 -0.986,-1.189 -1.548,-1.821 -0.466,-0.584 -1.095,-1.162 -1.764,-1.776 -0.23,-0.211 -0.463,-0.426 -0.688,-0.637 -3.595,-3.323 -7.326,-6.059 -11.118,-8.147 -1.825,-1.079 -3.988,-2.243 -6.182,-2.703 -0.12,-0.025 -0.226,-0.044 -0.318,-0.058 0.113,0.363 0.316,0.863 0.676,1.545 3.101,6.713 8.946,12.47 13.289,16.105 0.35,0.282 1.08,0.87 1.155,1.795 0.038,0.458 -0.096,0.918 -0.355,1.24 -0.776,1.174 -2.268,0.825 -3.002,0.656 l -0.286,-0.068 c -1.876,-0.524 -3.329,-1.622 -4.314,-2.453 -1.675,-1.638 -3.034,-3.067 -4.271,-4.492 -0.51,-0.409 -1.02,-0.829 -1.568,-1.288 -0.866,-0.725 -1.732,-1.474 -2.6,-2.224 l -0.086,-0.076 c -0.881,-0.762 -1.764,-1.526 -2.645,-2.265 -2.088,-1.749 -4.201,-3.423 -6.46,-5.116 -0.522,-0.389 -1.054,-0.785 -1.602,-1.167 1.271,1.909 2.731,3.756 4.16,5.565 0.866,1.097 1.847,2.339 2.709,3.505 l 0.165,0.205 c 0.543,0.67 1.286,1.587 1.455,2.771 l 0.01,0.14 c 0,0.278 -0.051,0.542 -0.147,0.783 0.4,-0.153 0.838,-0.167 1.307,-0.037 0.547,0.153 0.992,0.502 1.255,0.984 0.491,0.901 0.181,1.912 0.018,2.441 l -0.109,0.279 c -1.026,2.004 -3.398,2.957 -5.234,3.175 -4.265,0.693 -9.255,-0.529 -14.838,-3.647 -1.065,-0.604 -2.16,-1.331 -3.255,-2.162 -0.772,-0.439 -2.141,-1.54 -6.477,-5.122 -1.069,-0.884 -2.176,-1.798 -2.46,-2.004 -1.727,-1.448 -3.513,-2.943 -5.369,-4.304 -0.483,-0.354 -0.958,-0.714 -1.45,-1.088 -0.222,-0.168 -0.446,-0.337 -0.67,-0.506 0.758,1.163 1.518,2.322 2.267,3.466 l 0.056,0.084 c 2.446,3.734 4.977,7.596 7.264,11.314 2.537,3.933 5.089,7.814 7.634,11.685 4.502,6.846 9.157,13.925 13.594,21.102 l 0.21,0.343 c 0.269,0.434 0.522,0.843 0.661,1.415 0.247,0.856 0.026,1.642 -0.602,2.108 -0.419,0.303 -1.33,0.673 -2.755,-0.282 -1.324,-0.924 -2.611,-2.317 -3.941,-4.265 -5.528,-8.277 -11.004,-16.654 -16.6,-25.23 -0.582,-0.905 -1.164,-1.823 -1.751,-2.749 -0.525,-0.828 -1.056,-1.664 -1.594,-2.502 -2.023,3.088 -6.501,3.448 -12.457,0.952 -3.334,-1.435 -6.588,-3.538 -9.359,-6.039 -0.848,-0.671 -1.756,-1.446 -2.156,-1.836 l -6.323,-5.004 C 116.527,10.69 114.236,9.09 112.094,7.722 111.806,7.55 111.498,7.354 111.138,7.127 110.829,6.932 110.5,6.723 110.161,6.517 c 1.777,2.754 3.774,5.476 5.723,8.134 2.069,2.821 4.21,5.738 6.099,8.743 l 0.059,0.112 -0.86,0.484 h 0.001 l 0.921,-0.384 c 0.231,0.381 0.844,1.393 0.21,2.457 -0.809,1.355 -2.46,0.863 -3.02,0.696 l -0.302,-0.104 c -1.357,-0.62 -2.522,-1.628 -3.572,-3.094 -0.887,-1.294 -1.79,-2.59 -2.692,-3.885 -1.013,-0.8 -2.434,-1.952 -4.457,-3.602 l -0.217,-0.177 c -0.947,-0.771 -1.926,-1.568 -2.158,-1.732 l -1.035,-0.813 c -2.462,-1.937 -4.987,-3.922 -7.636,-5.674 0.481,0.723 0.964,1.447 1.448,2.172 2.686,4.024 5.464,8.185 7.974,12.253 l 21.68,33.345 0.201,0.393 c 0.582,1.185 1.379,2.809 0.315,3.853 -0.344,0.337 -1.107,0.805 -2.397,0.141 -1.845,-1.071 -3.173,-2.88 -4.17,-4.241 l -3.107,-4.713 c -4.385,-6.646 -9.355,-14.177 -13.97,-21.416 -1.454,-2.315 -2.943,-4.611 -4.435,-6.914 -1.213,-1.871 -2.436,-3.774 -3.652,-5.689 -1.325,-1.023 -2.599,-1.911 -3.914,-2.725 -0.057,-0.038 -0.115,-0.076 -0.173,-0.114 0.329,0.404 0.634,0.8 0.922,1.197 1.421,2.055 2.606,5.202 2.125,7.226 -0.429,1.93 -1.584,2.712 -2.475,3.029 -0.115,0.041 -0.232,0.076 -0.351,0.105 -0.066,0.537 -0.321,1.025 -0.734,1.397 -0.859,0.773 -2.392,1.034 -4.678,0.798 -1.934,-0.191 -4.201,-0.834 -6.386,-1.81 -2.154,-0.963 -4.211,-2.194 -6.264,-3.749 -1.15,0.907 -2.506,1.76 -2.543,1.777 -1.805,1.093 -3.782,1.886 -5.601,2.518 2.856,4.508 5.975,9.309 9.511,14.64 1.302,1.981 2.246,3.423 3.007,4.586 2.107,3.222 2.818,4.307 5.937,8.867 2.537,3.894 1.539,5.391 0.719,5.937 -1.263,0.839 -3.163,0.068 -4.016,-1.186 L 82.136,59.264 C 78.319,53.645 74.372,47.834 70.601,41.964 69.05,39.465 67.499,36.991 65.946,34.517 l -0.444,-0.709 c -1.186,-1.892 -2.372,-3.785 -3.558,-5.691 -6.32,1.627 -13.315,2.236 -19.993,1.757 2.425,3.658 4.71,7.402 6.803,11.149 4.166,7.192 4.623,8.222 7.594,14.931 l -0.003,10e-4 c 0.246,0.524 1.213,2.782 0.246,3.896 -0.381,0.437 -1.106,0.766 -2.004,0.377 L 54.455,60.157 C 53.918,59.82 53.381,59.271 52.814,58.48 52.404,58.04 52.075,57.557 51.762,57.095 l -0.926,-1.36 C 49.497,53.755 49.471,53.718 48.983,52.783 48.772,52.379 48.464,51.788 47.872,50.712 46.29,47.836 44.653,44.862 42.503,41.433 40.425,37.873 37.664,33.259 34.62,28.924 29.876,27.93 25.18,26.365 20.654,24.271 16.134,22.177 11.727,19.435 7.922,16.35 3.553,12.925 0.409,9.509 -1.68,5.916 -6.085,-1.463 -3.577,-4.668 -1.677,-5.93 c 2.015,-1.291 4.736,-1.278 8.29,0.047 2.292,0.809 4.294,1.956 6.611,3.441 8.551,5.69 14.92,13.295 20.013,19.973 1.997,2.553 3.988,5.287 6.075,8.35 6.868,0.785 13.969,0.415 20.652,-1.069 -0.538,-0.908 -1.079,-1.815 -1.62,-2.721 L 58.24,21.916 C 56.421,18.868 54.54,15.718 52.786,12.513 52.342,11.694 51.884,10.876 51.422,10.054 50.047,7.603 48.627,5.068 47.563,2.472 46.946,1.386 47.036,0.331 47.797,-0.227 c 0.281,-0.208 1.286,-0.789 2.383,0.456 0.577,0.581 1.032,1.268 1.43,1.871 l 0.296,0.441 c 4.075,6.146 8.002,12.48 11.8,18.605 l 1.362,2.193 c 2.735,-0.871 5.215,-2.002 7.4,-3.372 -0.273,-0.243 -0.547,-0.495 -0.824,-0.759 -4.073,-4.068 -6.251,-8.1 -6.477,-11.974 -0.206,-3.114 0.959,-5.365 3.281,-6.337 0.769,-0.322 1.639,-0.486 2.586,-0.486 1.943,0 3.913,0.679 5.423,1.273 3.53,1.431 6.636,3.248 9.751,5.708 2.359,0.316 4.542,1.229 6.491,2.257 C 92.107,8.64 91.579,7.71 91.083,6.808 90.609,6.012 89.855,4.147 90.411,2.756 90.83,1.819 91.665,1.304 92.76,1.304 c 0.636,-0.032 1.172,0.157 1.565,0.272 1.646,0.637 3.123,1.651 4.424,2.542 l 0.174,0.119 c 2.409,1.73 4.686,3.436 6.815,5.105 -0.456,-0.718 -0.885,-1.408 -1.299,-2.09 -1.82,-3.357 -0.821,-5.009 0.313,-5.787 0.446,-0.325 0.999,-0.49 1.644,-0.49 2.475,0 6.368,2.529 10.24,5.288 0.27,0.192 0.478,0.341 0.639,0.449 0.944,0.667 1.891,1.354 2.833,2.057 -0.549,-1.948 -0.549,-3.67 0.005,-5.14 0.507,-1.332 1.436,-2.263 2.686,-2.691 0.517,-0.175 1.096,-0.265 1.717,-0.265 3.248,0 7.213,2.429 9.342,3.732 l 0.266,0.161 c 1.68,1.011 3.306,2.104 4.867,3.271 -0.447,-0.835 -0.867,-1.698 -1.242,-2.6 -0.305,-0.891 -0.397,-2.17 0.257,-3.086 0.45,-0.628 1.154,-0.973 1.983,-0.973 0.95,0 2.046,0.419 2.601,0.773 2.779,1.489 5.23,3.458 7.608,5.368 l 0.791,0.634 c 0.178,0.142 0.356,0.285 0.533,0.428 -0.138,-0.459 -0.244,-0.908 -0.319,-1.35 -0.178,-0.89 -0.452,-3.134 0.846,-4.715 0.77,-0.939 1.926,-1.436 3.342,-1.436 3.323,0 8.21,2.764 12.549,5.776 -0.378,-1.002 -0.608,-2.031 -0.534,-3.079 0.081,-1.416 0.884,-2.026 1.355,-2.264 1.567,-0.79 3.635,0.283 4.709,0.98 3.109,1.916 5.975,4.203 8.735,6.502 -0.301,-0.764 -0.559,-1.524 -0.774,-2.281 -0.149,-0.578 -0.546,-2.584 0.541,-4.118 0.623,-0.881 1.586,-1.403 2.781,-1.51 1.265,-0.118 2.426,0.26 3.36,0.561 l 0.366,0.118 c 3.081,1.119 6.086,2.71 9.409,4.988 -1.068,-1.632 -2.091,-3.231 -3.085,-4.821 -3.045,-2.141 -6.966,-4.967 -10.598,-8.011 -3.181,-2.497 -7.284,-5.842 -10.812,-9.564 -3.232,-3.332 -6.69,-7.31 -7.829,-11.551 -0.487,-1.733 -0.254,-3.408 0.621,-4.479 0.482,-0.592 1.395,-1.298 3.002,-1.298 0.132,0 0.272,0.005 0.426,0.017 2.686,0.224 4.908,1.796 6.958,3.388 3.565,2.8 6.86,6.124 10.062,10.15 5.399,6.552 9.946,13.627 14.347,20.474 l 0.992,1.54 c 2.887,1.95 5.841,3.944 8.799,5.974 -0.673,-1.037 -1.589,-2.843 -1.2,-4.549 0.218,-0.954 0.804,-1.729 1.667,-2.224 1.757,-1.081 4.23,-1.18 7.915,-0.272 4.417,1.168 9.658,4.158 11.111,9.029 0.353,1.112 0.445,2.277 0.276,3.425 0.217,10e-4 0.439,0 0.669,10e-4 0.112,-10e-4 0.57,-0.026 1.228,-0.061 4.48,-0.235 4.482,-0.236 5.015,0.272 l 0.419,0.401 0.12,1.11 z"
             fill="#f1ae40"
             id="path11" />
          <path
             transform="matrix(2.7777777,0,0,-2.7777777,1951.5841,1217.8246)"
             d="m 0,0 c -1.265,2.583 -2.495,5.186 -3.869,7.71 -1.36,2.502 -2.377,4.808 -0.357,7.586 1,1.376 1.349,3.564 -0.336,4.747 -1.556,1.091 -2.896,-0.352 -4.079,-1.401 -0.08,-0.071 -0.292,0.009 -0.543,0.025 -0.492,0.958 -0.999,1.965 -1.525,2.962 -1.679,3.181 -3.902,6.311 -0.745,9.87 0.207,0.232 0.232,0.653 0.28,0.995 0.167,1.217 0.439,2.547 -0.783,3.354 -1.369,0.903 -2.576,0.11 -3.464,-0.872 -1.144,-1.266 -1.573,-0.749 -2.13,0.473 -1.118,2.456 -2.234,4.926 -3.565,7.268 -0.748,1.318 -0.709,2.328 -0.018,3.62 2.017,3.771 3.739,7.684 5.108,11.742 0.754,2.235 1.308,4.517 1.414,6.888 0.056,1.268 -0.086,2.633 -1.157,3.322 -1.124,0.724 -2.415,0.018 -3.449,-0.588 -1.585,-0.929 -2.881,-2.239 -4.11,-3.611 -3.282,-3.66 -5.987,-7.728 -8.528,-11.916 -0.49,-0.807 -0.838,-1.674 -2.047,-1.762 -3.542,-0.26 -7.077,-0.623 -10.728,-0.955 0.103,0.822 0.134,1.507 0.283,2.165 0.258,1.138 0.036,2.143 -0.924,2.792 -1.17,0.788 -2.177,0.051 -3.087,-0.632 -1.289,-0.968 -2.088,-2.324 -2.762,-3.76 -0.328,-0.698 -0.552,-1.329 -1.61,-1.395 -3.035,-0.186 -6.057,-0.561 -9.209,-0.875 0.102,0.828 0.234,1.413 0.234,1.998 -10e-4,1.043 0.029,2.154 -1.075,2.752 -1.246,0.677 -2.204,-0.132 -3.076,-0.808 -1.043,-0.809 -1.905,-1.886 -2.339,-3.115 -0.505,-1.43 -1.431,-1.655 -2.771,-1.759 -4.006,-0.311 -8,-0.774 -11.995,-1.203 -1.777,-0.192 -3.412,-0.776 -4.694,-2.081 -0.719,-0.732 -1.867,-1.47 -1.538,-2.545 0.295,-0.962 1.631,-0.785 2.532,-0.991 14.008,-3.184 28.019,-6.344 42.173,-9.542 -2.093,-4.161 -3.996,-8.083 -6.027,-11.937 -1.568,-2.977 -1.596,-7.373 -4.325,-8.886 -2.801,-1.555 -6.815,-1.313 -10.273,-1.185 -3.434,0.128 -4.997,-1.534 -6.266,-4.272 -0.639,-1.379 -0.337,-1.837 1.025,-2.12 3.239,-0.674 6.448,-1.498 9.698,-2.107 1.852,-0.347 3.036,-0.755 2.316,-3.102 -0.322,-1.053 -0.319,-2.62 0.878,-3.342 1.273,-0.767 2.257,0.401 3.275,1.004 0.224,0.132 0.475,0.275 0.616,0.48 0.979,1.426 1.689,0.774 2.587,-0.174 2.458,-2.595 5.001,-5.11 7.522,-7.646 0.455,-0.458 0.806,-1.244 1.694,-0.693 1.494,0.925 2.586,5.103 1.766,6.744 -1.637,3.271 -3.234,6.564 -4.921,9.81 -0.528,1.017 -0.734,1.753 0.098,2.806 4.126,5.22 7.686,10.825 10.825,16.687 0.79,1.476 1.261,1.379 2.336,0.252 3.853,-4.039 7.814,-7.973 11.728,-11.953 5.933,-6.033 11.853,-12.08 17.795,-18.102 1.693,-1.716 2.181,-1.58 2.871,0.683 C 1.431,-4.294 1.029,-2.104 0,0"
             fill="#f1ae40"
             id="path12" />
        </g>
      </g>
    </g>
  </g>
</svg>
